<svg xmlns="http://www.w3.org/2000/svg" viewBox="0 0 303.44 182.59"><title>Asset 2</title><g id="Layer_2" data-name="Layer 2"><g id="Layer_1-2" data-name="Layer 1"><polygon points="284.03 83.27 268.03 99.27 215.85 99.27 215.85 83.27 284.03 83.27" fill="#005073"/><polygon points="264.63 102.67 248.63 118.67 215.85 118.67 215.85 102.67 264.63 102.67" fill="#005073"/><polygon points="303.44 63.86 287.44 79.86 215.85 79.86 215.85 63.86 303.44 63.86" fill="#005073"/><polygon points="19.41 83.27 35.41 99.27 87.59 99.27 87.59 83.27 19.41 83.27" fill="#005073"/><polygon points="38.81 102.67 54.81 118.67 87.59 118.67 87.59 102.67 38.81 102.67" fill="#005073"/><polygon points="0 63.86 16 79.86 87.59 79.86 87.59 63.86 0 63.86" fill="#005073"/><polyline points="223.85 60.46 223.85 49.65 151.72 8 79.58 49.65 79.58 60.46" fill="none" stroke="#011f4b" stroke-linejoin="round" stroke-width="16"/><polyline points="79.58 122.09 79.58 132.94 151.72 174.59 223.85 132.94 223.85 122.08" fill="none" stroke="#011f4b" stroke-linejoin="round" stroke-width="16"/><text transform="translate(113.74 127.77)" font-size="103.65" fill="#011f4b" font-family="EvilEmpire, Evil Empire">c</text><text transform="translate(159.8 127.77)" font-size="103.65" fill="#011f4b" font-family="EvilEmpire, Evil Empire">T</text></g></g></svg>