<svg id="Layer_1" enable-background="new 0 0 512.001 512.001" height="512" viewBox="0 0 512.001 512.001" width="512" xmlns="http://www.w3.org/2000/svg"><g clip-rule="evenodd" fill-rule="evenodd"><path d="m161 405.847v91.153c0 4.92 2.413 9.526 6.456 12.329 2.545 1.764 5.532 2.671 8.545 2.671 1.775 0 3.559-.314 5.266-.955l74.733-28.025 74.733 28.025c4.604 1.729 9.766 1.087 13.811-1.716 4.043-2.803 6.456-7.409 6.456-12.329v-91.153c-27.823 16.599-60.315 26.152-95 26.152s-67.176-9.554-95-26.152z"/><path d="m351 86.152v-71.152c0-8.284-6.716-15-15-15h-160c-8.284 0-15 6.716-15 15v71.152c27.824-16.598 60.315-26.152 95-26.152s67.177 9.553 95 26.152z"/><path d="m269.249 225.533-13.249-21.407-13.249 21.407c-2.069 3.344-5.369 5.741-9.189 6.677l-24.453 5.984 16.265 19.214c2.541 3.001 3.801 6.881 3.51 10.803l-1.865 25.106 23.3-9.531c1.82-.745 3.75-1.117 5.679-1.117 1.93 0 3.859.372 5.679 1.117l23.302 9.531-1.865-25.105c-.292-3.922.969-7.801 3.51-10.803l16.266-19.215-24.453-5.984c-3.819-.936-7.119-3.333-9.188-6.677z"/><path d="m256 90c-85.922 0-156 70.078-156 156s70.078 156 156 156 156-70.078 156-156-70.078-156-156-156zm85.449 149.077-27.961 33.031 3.206 43.158c.385 5.182-1.938 10.192-6.142 13.246-4.204 3.055-9.688 3.715-14.496 1.748l-40.056-16.386-40.055 16.386c-1.831.749-3.759 1.117-5.678 1.117-3.121 0-6.215-.974-8.818-2.865-4.203-3.054-6.527-8.064-6.142-13.246l3.206-43.159-27.961-33.03c-3.357-3.965-4.422-9.386-2.817-14.326 1.605-4.941 5.653-8.7 10.7-9.936l42.036-10.287 22.774-36.8c2.734-4.418 7.56-7.106 12.755-7.106s10.021 2.688 12.755 7.106l22.775 36.8 42.036 10.287c5.046 1.235 9.094 4.994 10.7 9.935 1.605 4.941.54 10.361-2.817 14.327z"/></g></svg>