<svg id="icons" enable-background="new 0 0 64 64" height="512" viewBox="0 0 64 64" width="512" xmlns="http://www.w3.org/2000/svg"><path d="m14.215 46.99h-1.22c-1.654 0-3 1.346-3 3v1c0 .553.447 1 1 1h19.994c.553 0 1-.447 1-1v-1c0-1.654-1.346-3-3-3h-1.22l-.499-1.996h11.711c1.654 0 3-1.346 3-3v-26.984c0-1.654-1.346-3-3-3h-35.978c-1.654 0-3 1.346-3 3v26.984c0 1.654 1.346 3 3 3h11.711zm-1.22 2h15.994c.552 0 1 .448 1 1h-17.994c0-.552.448-1 1-1zm12.714-2h-9.434l.499-1.996h8.436zm-22.706-32.98h35.979c.552 0 1 .448 1 1v23.984h-37.979v-23.984c0-.552.448-1 1-1zm-1 27.984v-1h19.009c-.552 0-.994.447-.994 1s.452 1 1.005 1c.552 0 1-.447 1-1s-.448-1-1-1h18.959v1c0 .552-.448 1-1 1h-17.96-18.019c-.552 0-1-.448-1-1z"/><path d="m60.997 12.01h-14.001c-1.654 0-3 1.346-3 3v33.98c0 1.654 1.346 3 3 3h14.001c1.654 0 3-1.346 3-3v-33.98c0-1.655-1.346-3-3-3zm-15.001 5.996h16.001v.998h-16.001zm1-3.996h14.001c.552 0 1 .448 1 1v.996h-16.001v-.996c0-.552.448-1 1-1zm14.001 35.98h-14.001c-.552 0-1-.448-1-1v-27.986h16.001v27.986c0 .552-.448 1-1 1z"/><path d="m53.997 33.004c1.654 0 3-1.346 3-3s-1.346-3-3-3-3 1.346-3 3 1.346 3 3 3zm0-4c.552 0 1 .448 1 1s-.448 1-1 1-1-.448-1-1 .448-1 1-1z"/><path d="m57.997 39.006h-8c-.553 0-1 .447-1 1s.447 1 1 1h8c.553 0 1-.447 1-1s-.447-1-1-1z"/><path d="m57.997 42.006h-8c-.553 0-1 .447-1 1s.447 1 1 1h8c.553 0 1-.447 1-1s-.447-1-1-1z"/><path d="m57.997 45.006h-8c-.553 0-1 .447-1 1s.447 1 1 1h8c.553 0 1-.447 1-1s-.447-1-1-1z"/></svg>