<svg height="512" viewBox="0 0 64 64" width="512" xmlns="http://www.w3.org/2000/svg"><g id="Outline"><path d="m61 60.008h-2v-31a1 1 0 0 0 -1-1h-11v-10a1 1 0 0 0 -1-1h-28a1 1 0 0 0 -1 1v10h-11a1 1 0 0 0 -1 1v31h-2a1 1 0 0 0 0 2h58a1 1 0 0 0 0-2zm-44 0h-10v-30h10zm14 0h-4v-13h4zm6 0h-4v-13h4zm8-31v31h-6v-13h1a1 1 0 0 0 0-2h-16a1 1 0 0 0 0 2h1v13h-6v-41h26zm12 31h-10v-30h10z"/><path d="m22 27.008h4a1 1 0 0 0 1-1v-4a1 1 0 0 0 -1-1h-4a1 1 0 0 0 -1 1v4a1 1 0 0 0 1 1zm1-4h2v2h-2z"/><path d="m30 27.008h4a1 1 0 0 0 1-1v-4a1 1 0 0 0 -1-1h-4a1 1 0 0 0 -1 1v4a1 1 0 0 0 1 1zm1-4h2v2h-2z"/><path d="m38 27.008h4a1 1 0 0 0 1-1v-4a1 1 0 0 0 -1-1h-4a1 1 0 0 0 -1 1v4a1 1 0 0 0 1 1zm1-4h2v2h-2z"/><path d="m22 35.008h4a1 1 0 0 0 1-1v-4a1 1 0 0 0 -1-1h-4a1 1 0 0 0 -1 1v4a1 1 0 0 0 1 1zm1-4h2v2h-2z"/><path d="m30 35.008h4a1 1 0 0 0 1-1v-4a1 1 0 0 0 -1-1h-4a1 1 0 0 0 -1 1v4a1 1 0 0 0 1 1zm1-4h2v2h-2z"/><path d="m38 35.008h4a1 1 0 0 0 1-1v-4a1 1 0 0 0 -1-1h-4a1 1 0 0 0 -1 1v4a1 1 0 0 0 1 1zm1-4h2v2h-2z"/><path d="m22 43.008h4a1 1 0 0 0 1-1v-4a1 1 0 0 0 -1-1h-4a1 1 0 0 0 -1 1v4a1 1 0 0 0 1 1zm1-4h2v2h-2z"/><path d="m30 43.008h4a1 1 0 0 0 1-1v-4a1 1 0 0 0 -1-1h-4a1 1 0 0 0 -1 1v4a1 1 0 0 0 1 1zm1-4h2v2h-2z"/><path d="m38 43.008h4a1 1 0 0 0 1-1v-4a1 1 0 0 0 -1-1h-4a1 1 0 0 0 -1 1v4a1 1 0 0 0 1 1zm1-4h2v2h-2z"/><path d="m28.539 12.634a1 1 0 0 0 .7 1.873 7.847 7.847 0 0 1 5.518 0 1 1 0 0 0 .7-1.873 9.866 9.866 0 0 0 -6.918 0z"/><path d="m37.979 10.47a1 1 0 0 0 .461-1.887 14 14 0 0 0 -12.88 0 1 1 0 1 0 .92 1.775 12 12 0 0 1 11.04 0 1 1 0 0 0 .459.112z"/><path d="m40.789 6.46a1 1 0 0 0 .52-1.856 17.9 17.9 0 0 0 -18.618 0 1 1 0 0 0 1.038 1.711 15.892 15.892 0 0 1 16.542 0 1 1 0 0 0 .518.145z"/><path d="m10 38.008h4a1 1 0 0 0 1-1v-4a1 1 0 0 0 -1-1h-4a1 1 0 0 0 -1 1v4a1 1 0 0 0 1 1zm1-4h2v2h-2z"/><path d="m50 38.008h4a1 1 0 0 0 1-1v-4a1 1 0 0 0 -1-1h-4a1 1 0 0 0 -1 1v4a1 1 0 0 0 1 1zm1-4h2v2h-2z"/><path d="m10 46.008h4a1 1 0 0 0 1-1v-4a1 1 0 0 0 -1-1h-4a1 1 0 0 0 -1 1v4a1 1 0 0 0 1 1zm1-4h2v2h-2z"/><path d="m50 46.008h4a1 1 0 0 0 1-1v-4a1 1 0 0 0 -1-1h-4a1 1 0 0 0 -1 1v4a1 1 0 0 0 1 1zm1-4h2v2h-2z"/></g></svg>