<?xml version="1.0" encoding="iso-8859-1"?>
<!-- Generator: Adobe Illustrator 19.0.0, SVG Export Plug-In . SVG Version: 6.00 Build 0)  -->
<svg version="1.1" id="Capa_1" xmlns="http://www.w3.org/2000/svg" xmlns:xlink="http://www.w3.org/1999/xlink" x="0px" y="0px"
	 viewBox="0 0 512.001 512.001" style="enable-background:new 0 0 512.001 512.001;" xml:space="preserve">
<g>
	<g>
		<path d="M334,57.959c-5.522,0-10,4.507-10,10.03c0,5.523,4.478,10.001,10,10.001c5.522,0,10-4.477,10-10v-0.061
			C344,62.406,339.523,57.959,334,57.959z"/>
	</g>
</g>
<g>
	<g>
		<path d="M295.542,41.572C270.477,37.333,237.612,35,203,35c-5.522,0-10,4.477-10,10s4.478,10,10,10
			c33.528,0,65.209,2.234,89.206,6.291c0.564,0.096,1.125,0.142,1.679,0.142c4.79,0,9.023-3.454,9.849-8.334
			C304.654,47.653,300.987,42.493,295.542,41.572z"/>
	</g>
</g>
<g>
	<g>
		<path d="M446,383.999c-5.522,0-10,4.477-10,10c0,11.219-4.369,21.766-12.302,29.698c-16.375,16.376-43.021,16.376-59.396,0
			C356.369,415.765,352,405.218,352,393.999s4.368-21.766,12.302-29.699c8.545-8.545,20.372-13.001,32.442-12.212
			c5.485,0.35,10.27-3.819,10.627-9.33c0.358-5.511-3.818-10.27-9.33-10.628c-17.804-1.161-35.268,5.412-47.882,18.028
			c-11.71,11.71-18.159,27.28-18.159,43.841c0,16.561,6.449,32.13,18.159,43.841c12.087,12.087,27.964,18.13,43.841,18.13
			s31.754-6.043,43.841-18.13c11.71-11.71,18.159-27.28,18.159-43.841C456,388.476,451.523,383.999,446,383.999z"/>
	</g>
</g>
<g>
	<g>
		<path d="M437.872,350.188l-0.159-0.159l-7.118,7.024l7.071-7.071c-3.906-3.905-10.236-3.905-14.143,0
			c-3.905,3.905-3.905,10.237,0,14.143c0.007,0.007,0.139,0.138,0.147,0.146c1.955,1.972,4.527,2.958,7.101,2.958
			c2.546,0,5.092-0.966,7.042-2.899C441.734,360.441,441.76,354.109,437.872,350.188z"/>
	</g>
</g>
<g>
	<g>
		<path d="M504.417,367.818l-14.517-3.616l-7.021-16.94l7.702-12.814c2.366-3.936,1.748-8.976-1.499-12.223l-23.308-23.308
			c-3.248-3.247-8.288-3.866-12.224-1.499l-12.813,7.703l-16.94-7.021l-3.617-14.518c-1.109-4.456-5.111-7.583-9.703-7.583H406
			V67.99c0-20.58-22.01-38.07-63.65-50.582C304.989,6.182,255.5,0,203,0S101.013,6.182,63.651,17.408C22.01,29.919,0,47.41,0,67.99
			v376.02c0,20.58,22.01,38.07,63.65,50.582C101.013,505.818,150.5,512,203,512c22.181,0,43.956-1.105,64.722-3.285
			c5.493-0.577,9.478-5.497,8.901-10.989c-0.576-5.494-5.511-9.479-10.989-8.901C245.56,490.932,224.485,492,203,492
			c-50.604,0-98.049-5.882-133.594-16.562C32.94,464.481,20,451.66,20,444.01v-94.214c10.541,7.357,25.154,13.899,43.65,19.456
			C101.013,380.478,150.5,386.66,203,386.66c15.327,0,30.597-0.534,45.384-1.587c5.509-0.392,9.657-5.176,9.265-10.685
			c-0.392-5.509-5.203-9.661-10.685-9.264c-14.316,1.019-29.108,1.536-43.964,1.536c-50.604,0-98.049-5.882-133.594-16.562
			C32.94,339.141,20,326.32,20,318.67v-94.215c10.542,7.357,25.155,13.899,43.651,19.456c37.36,11.226,86.849,17.408,139.349,17.408
			s101.988-6.182,139.349-17.408c18.497-5.558,33.11-12.1,43.651-19.456v51.544h-8.478c-4.592,0-8.594,3.127-9.703,7.583
			l-3.617,14.518l-16.94,7.021l-12.813-7.703c-3.935-2.367-8.977-1.748-12.224,1.499l-23.308,23.308
			c-3.247,3.247-3.865,8.288-1.499,12.223l7.702,12.814l-7.021,16.94l-14.517,3.616c-4.456,1.11-7.583,5.112-7.583,9.704v32.955
			c0,4.592,3.127,8.593,7.582,9.703l14.518,3.617l7.021,16.94l-7.703,12.815c-2.365,3.936-1.746,8.976,1.5,12.223l23.308,23.307
			c3.248,3.247,8.289,3.864,12.224,1.5l12.813-7.703l16.94,7.021l3.617,14.518c1.109,4.456,5.111,7.583,9.703,7.583h32.955
			c4.592,0,8.594-3.127,9.703-7.583l3.617-14.518l16.94-7.021l12.813,7.703c3.935,2.365,8.977,1.748,12.224-1.5l23.308-23.307
			c3.246-3.247,3.865-8.288,1.5-12.223l-7.703-12.815l7.021-16.94l14.518-3.617c4.455-1.11,7.582-5.111,7.582-9.703v-32.955
			C512,372.93,508.873,368.928,504.417,367.818z M69.406,36.562C104.951,25.882,152.396,20,203,20s98.049,5.882,133.594,16.562
			C373.062,47.519,386,60.34,386,67.99c0,7.65-12.939,20.471-49.406,31.427c-35.545,10.68-82.989,16.562-133.594,16.562
			s-98.049-5.882-133.594-16.562C32.94,88.46,20,75.64,20,67.99S32.94,47.519,69.406,36.562z M336.594,224.757
			c-35.545,10.68-82.989,16.562-133.594,16.562s-98.049-5.882-133.594-16.562C32.94,213.801,20,200.98,20,193.33V99.115
			c10.542,7.357,25.155,13.899,43.651,19.456c37.36,11.226,86.849,17.408,139.349,17.408s101.988-6.182,139.349-17.408
			c18.497-5.558,33.11-12.1,43.651-19.456v94.215C386,200.98,373.062,213.801,336.594,224.757z M492,402.662l-11.826,2.947
			c-3.076,0.766-5.606,2.946-6.82,5.875l-10.881,26.255c-1.214,2.93-0.967,6.262,0.668,8.98l6.274,10.439l-12.256,12.256
			l-10.438-6.275c-2.717-1.633-6.051-1.881-8.98-0.667l-26.256,10.88c-2.929,1.214-5.109,3.745-5.875,6.821l-2.946,11.826h-17.326
			l-2.946-11.826c-0.766-3.076-2.946-5.607-5.875-6.821l-26.256-10.88c-2.933-1.215-6.264-0.966-8.98,0.667l-10.438,6.275
			l-12.256-12.256l6.274-10.439c1.635-2.718,1.882-6.05,0.668-8.98l-10.881-26.255c-1.214-2.929-3.744-5.108-6.82-5.875L296,402.662
			v-17.326l11.825-2.946c3.076-0.767,5.607-2.946,6.821-5.875l10.881-26.255c1.214-2.93,0.967-6.262-0.668-8.98l-6.274-10.439
			l12.256-12.256l10.438,6.275c2.717,1.634,6.05,1.884,8.98,0.668l26.256-10.881c2.929-1.214,5.109-3.745,5.875-6.821L385.337,296
			h17.326l2.946,11.826c0.766,3.076,2.946,5.607,5.875,6.821l26.256,10.881c2.929,1.214,6.263,0.965,8.98-0.668l10.438-6.275
			l12.256,12.256l-6.274,10.439c-1.635,2.718-1.882,6.05-0.668,8.98l10.881,26.255c1.214,2.929,3.745,5.108,6.821,5.875L492,385.336
			V402.662z"/>
	</g>
</g>
<g>
</g>
<g>
</g>
<g>
</g>
<g>
</g>
<g>
</g>
<g>
</g>
<g>
</g>
<g>
</g>
<g>
</g>
<g>
</g>
<g>
</g>
<g>
</g>
<g>
</g>
<g>
</g>
<g>
</g>
</svg>
