<svg id="Layer_1" enable-background="new 0 0 512 512" height="512" viewBox="0 0 512 512" width="512" xmlns="http://www.w3.org/2000/svg"><g><path d="m404.669 218.677c0-12.798-5.173-24.384-13.54-32.79-4.872-4.896-7.196-11.761-6.764-18.655.047-.758.071-1.522.071-2.291 0-12.73-6.537-23.934-16.438-30.437-6.68-4.388-10.9-11.66-10.9-19.652v-12.48c0-55.749-44.593-101.958-100.341-102.369-56.186-.413-101.857 45.008-101.857 101.097v13.752c0 7.993-4.22 15.264-10.9 19.652-9.9 6.503-16.438 17.706-16.438 30.437 0 .77.024 1.534.071 2.291.432 6.894-1.892 13.759-6.764 18.655-8.367 8.407-13.54 19.992-13.54 32.79 0 12.878 5.238 24.529 13.697 32.948 4.776 4.753 7.15 11.297 6.64 18.015-.166 2.189-.138 4.431.104 6.712 1.114 10.495 6.79 19.644 14.927 25.531l5.897 5.698h211.391l9.301-5.689c8.144-5.887 13.825-15.04 14.939-25.541.242-2.281.271-4.524.105-6.712-.51-6.718 1.864-13.262 6.64-18.015 8.462-8.418 13.699-20.069 13.699-32.947z" fill="#9d5e5e"/><path d="m176.94 276.353c-.242-2.281-.271-4.524-.104-6.712.51-6.718-1.864-13.262-6.64-18.015-8.459-8.42-13.697-20.07-13.697-32.948 0-12.798 5.173-24.384 13.54-32.79 4.873-4.896 7.196-11.761 6.764-18.655-.048-.758-.071-1.522-.071-2.291 0-12.73 6.537-23.934 16.438-30.437 6.68-4.388 10.9-11.66 10.9-19.652v-13.753c0-47.32 32.507-87.046 76.409-98.064-7.597-1.919-15.536-2.973-23.719-3.033-56.189-.413-101.86 45.008-101.86 101.097v13.752c0 7.993-4.22 15.264-10.9 19.652-9.9 6.503-16.438 17.706-16.438 30.437 0 .77.024 1.534.071 2.291.432 6.894-1.892 13.759-6.764 18.655-8.367 8.407-13.54 19.992-13.54 32.79 0 12.878 5.238 24.529 13.697 32.948 4.776 4.753 7.15 11.297 6.64 18.015-.166 2.189-.138 4.431.104 6.712 1.114 10.495 6.79 19.644 14.927 25.531l5.897 5.698h49.168l-5.897-5.698c-8.136-5.886-13.811-15.035-14.925-25.53z" fill="#865151"/><path d="m326.195 285.205c-.412-.16-.812-.315-1.218-.472l-8.601 3.791-62.842 52.196-60.609-54.085-6.494-1.706c-.237.092-.466.181-.705.273l-3.051 4.866 39.525 211.189 8.99 10.741h49.544l4.308-4.818 46.101-215.739z" fill="#fff5f5"/><path d="m249.495 345.291v-8.175l-56.57-50.48-6.494-1.706c-.237.092-.466.181-.705.273l-3.051 4.866 39.525 211.189 8.99 10.741h49.544l3.041-3.4z" fill="#eee1dd"/><path d="m301.871 275.785c-2.85-1.102-4.744-3.844-4.752-6.916l-.02-24.181-10.77-1.75h-66.394l-5.098 1.9.001 23.986c0 5.691-5.076 7.061-7.24 7.9v-.001c-.502.194-8.135 3.154-21.166 8.206l50.556 53.196c9.554 9.554 25.044 9.554 34.598 0l53.392-53.392c-12.423-4.81-21.661-8.388-23.107-8.948z" fill="#fed1a3"/><path d="m249.495 344.815v-101.877h-29.56l-5.098 1.9.001 23.986c0 5.691-5.076 7.061-7.24 7.9v-.001c-.502.194-8.134 3.153-21.166 8.206l50.556 53.196c3.551 3.553 7.924 5.779 12.507 6.69z" fill="#ffbc85"/><path d="m185.726 285.204c-29.564 11.462-78.69 30.507-79.505 30.823-17.194 7.076-40.217 29.341-40.217 62.38v120.192c0 7.401 6 13.402 13.402 13.402h151.784z" fill="#da7e4a"/><path d="m326.195 285.205-45.462 226.795h151.863c7.402 0 13.402-6 13.402-13.402 0-11.073 0-107.155 0-120.192 0-28.453-18.217-53.325-40.216-62.38-3.478-1.346-49.919-19.331-79.587-30.821z" fill="#da7e4a"/><path d="m135.754 512v-141.485c0-4.267-3.459-7.726-7.726-7.726s-7.726 3.459-7.726 7.726v141.485z" fill="#cb6c35"/><path d="m391.698 512v-141.485c0-4.267-3.459-7.726-7.726-7.726s-7.726 3.459-7.726 7.726v141.485z" fill="#cb6c35"/><path d="m317.319 121.893c-10.494-10.401-25.249-29.108-36.307-53.789-2.807-6.265-9.4-3.751-10.208 1.321-1.273 7.998-7.791 35.021-39.53 61.036v53.289c0 31.335 19.352 58.683 46.687 70.171 29.649-9.192 51.36-37.271 51.36-69.812v-33.112c.001-10.905-4.257-21.426-12.002-29.104z" fill="#ffe5c1"/><path d="m233.224 184.11v-55.275c-7.888 6.694-17.409 13.349-28.914 19.625-13.316 7.264-21.636 21.192-21.636 36.361 0 37.681 29.456 72.128 74.076 72.278 8.596.029 16.853-1.497 24.523-4.295-27.941-10.195-48.049-37.377-48.049-68.694z" fill="#fed1a3"/><path d="m99.693 378.291c0-31.518 15.601-55.895 28.86-70.923-12.755 4.945-21.984 8.523-22.333 8.658-17.194 7.076-40.217 29.341-40.217 62.38v120.192c0 7.402 6 13.402 13.401 13.402h20.288c.001-38.344.001-98.431.001-133.709z" fill="#cb6c35"/></g></svg>