<svg id="Capa_1" enable-background="new 0 0 512 512" height="512" viewBox="0 0 512 512" width="512" xmlns="http://www.w3.org/2000/svg"><g><path d="m15 91c8.284 0 15-6.716 15-15v-46h46c8.284 0 15-6.716 15-15s-6.716-15-15-15h-61c-8.284 0-15 6.716-15 15v61c0 8.284 6.716 15 15 15z"/><path d="m15 512h61c8.284 0 15-6.716 15-15s-6.716-15-15-15h-46v-46c0-8.284-6.716-15-15-15s-15 6.716-15 15v61c0 8.284 6.716 15 15 15z"/><path d="m497 91c8.284 0 15-6.716 15-15v-61c0-8.284-6.716-15-15-15h-61c-8.284 0-15 6.716-15 15s6.716 15 15 15h46v46c0 8.284 6.716 15 15 15z"/><path d="m497 421c-8.284 0-15 6.716-15 15v46h-46c-8.284 0-15 6.716-15 15s6.716 15 15 15h61c8.284 0 15-6.716 15-15v-61c0-8.284-6.716-15-15-15z"/><path d="m256 361c57.897 0 105-47.103 105-105s-47.103-105-105-105-105 47.103-105 105 47.103 105 105 105zm0-180c41.355 0 75 33.645 75 75s-33.645 75-75 75-75-33.645-75-75 33.645-75 75-75z"/><path d="m256 301c24.813 0 45-20.187 45-45s-20.187-45-45-45-45 20.187-45 45 20.187 45 45 45zm0-60c8.271 0 15 6.729 15 15s-6.729 15-15 15-15-6.729-15-15 6.729-15 15-15z"/><path d="m76.023 342.381c50.592 43.433 113.077 78.619 179.977 78.619 66.903 0 129.389-35.19 179.977-78.619 44.516-38.216 72.029-76.003 73.179-77.593 3.793-5.246 3.793-12.332 0-17.577-1.149-1.59-28.663-39.377-73.179-77.593-50.592-43.432-113.077-78.618-179.977-78.618-66.903 0-129.389 35.19-179.977 78.619-44.516 38.216-72.029 76.003-73.179 77.593-3.793 5.246-3.793 12.332 0 17.577 1.15 1.589 28.664 39.377 73.179 77.592zm179.977-221.381c63.673 0 122.116 38.583 159.933 70.951 29.612 25.345 51.609 51.001 62.093 64.044-10.341 12.847-31.897 37.957-61.025 63.071-41.709 35.962-98.941 71.934-161.001 71.934-63.673 0-122.116-38.583-159.933-70.951-29.614-25.347-51.612-51.004-62.093-64.044 10.341-12.847 31.898-37.956 61.026-63.071 41.708-35.962 98.94-71.934 161-71.934z"/></g></svg>