<?xml version="1.0" encoding="utf-8"?>
<!-- Generator: Adobe Illustrator 19.0.0, SVG Export Plug-In . SVG Version: 6.00 Build 0)  -->
<svg version="1.1" id="layer" xmlns="http://www.w3.org/2000/svg" xmlns:xlink="http://www.w3.org/1999/xlink" x="0px" y="0px"
	 viewBox="-153 -46 652 652" style="enable-background:new -153 -46 652 652;" xml:space="preserve">
<style type="text/css">
	.st0{fill:#4D4D4D;}
	.st1{fill:none;}
	.st2{fill:#25C16F;}
	.st3{fill:#FFFFFF;}
</style>
<g>
	<path class="st0" d="M27.9,212.7c-16.4,0-22.3,11.5-22.3,22.3v6.6H2.3c-2.6,0-4.6,2-4.6,4.6s2,4.6,4.6,4.6h3.3V296
		c0,2.6,2,4.9,4.9,4.9s4.9-2,4.9-4.9v-45.6h10.5c2.6,0,4.6-2,4.6-4.6c0-2.6-2-4.6-4.6-4.6H15.4v-6.6c0-5.9,2.3-13.1,12.8-13.1
		c2.6,0,4.6-2,4.6-4.3C32.5,214.6,30.5,212.7,27.9,212.7z M65.3,239.9c-6.6-0.3-12.5,2.6-16.4,7.9v-2.6c0-2.6-2-4.9-4.9-4.9
		s-4.9,2.3-4.9,4.9v50.5c0,2.6,2,4.9,4.9,4.9s4.9-2,4.9-4.9v-27.9c0-11.8,6.2-18.7,16.4-18.7c2.6,0,4.6-2,4.6-4.6
		S67.6,239.9,65.3,239.9z M123.4,264.8c0-5.6-1.6-11.2-4.6-15.8c-4.6-6.2-12.1-9.8-20-9.2c-16.7,0-26.3,11.2-26.3,30.5
		c0,20,9.5,30.8,27.6,30.8c7.2,0.3,14.4-2.3,20-7.2c1-0.7,1.6-2,1.6-3.3c0-2.3-2-4.3-4.3-4.3c-1,0-2,0.3-2.6,1
		c-3.9,3.3-9.2,5.3-14.4,5.3c-10.8,0-17.7-7.2-18-18.7h35.4C123.4,273.4,123.4,268.1,123.4,264.8z M99.1,248.4
		c9.8,0,14.8,5.6,15.1,16.4H82.4C83.4,254.3,89.3,248.4,99.1,248.4z M155.6,265.5c-7.2-2.6-13.1-4.6-13.1-9.8
		c0-5.9,6.6-6.6,10.2-6.6c4.9-0.3,9.8,1.6,13.1,4.9c1.6,1.6,4.6,1.6,6.2,0c1-1,1.3-2,1.3-3.3c0-1-0.3-2-1-3
		c-4.9-5.6-12.1-8.9-19.4-8.2c-12.1,0-19.7,6.2-19.7,15.8c0,11.8,10.5,15.4,19.7,18.7c6.9,2.3,13.1,4.3,13.1,9.5
		c0,6.9-7.9,8.2-12.5,8.2c-5.6,0.3-11.2-2-15.1-5.9c-1-1-2-1.3-3.3-1.6c-2.3,0-4.3,2-4.3,4.3c0,1,0.3,2,1,3
		c5.6,6.6,13.5,9.8,21.7,9.8c13.8,0,22-6.6,22-17.1C174.9,272,164.7,268.8,155.6,265.5z M212.3,239.6c-5.9-0.3-11.8,2.3-15.8,6.9
		v-32.2c0-2.6-2-4.9-4.9-4.9c-2.6,0-4.6,2-4.6,4.9v81.4c0,2.6,2,4.9,4.6,4.9c2.6,0,4.9-2,4.9-4.9v-30.5c0-11.2,5.3-16.7,15.8-16.7
		c10.5,0,14.1,4.6,14.1,15.8v31.5c0,2.6,2,4.9,4.9,4.9c2.6,0,4.6-2,4.6-4.9v-33.1C236,247.4,228.1,239.6,212.3,239.6z M292.1,209.4
		c-2.6,0-4.6,2-4.6,4.6v32.2c-4.3-4.3-10.2-6.6-16.1-6.6c-17.1,0-25.6,10.2-25.6,30.5c0,20.3,9.2,30.8,26.3,30.8
		c15.8,0,25.3-9.5,25.3-25.3v-61.4C297,211.7,294.7,209.4,292.1,209.4L292.1,209.4z M271.7,292.4c-11.2,0-16.7-7.2-16.7-22
		c0-14.8,5.6-22,16.7-22c6.6,0.3,12.8,4.3,15.8,10.2v17.1C287.5,286.2,281.6,292.4,271.7,292.4z M358.7,264.8
		c0-5.6-1.6-11.2-4.6-15.8c-4.6-6.2-12.1-9.8-20-9.2c-16.7,0-26.3,11.2-26.3,30.5c0,20,9.5,30.8,27.6,30.8c7.2,0.3,14.4-2.3,20-7.2
		c1-0.7,1.6-2,1.6-3.3c0-2.3-2-4.3-4.3-4.3c-1,0-2,0.3-2.6,1c-3.9,3.3-9.2,5.3-14.4,5.3c-10.8,0-17.7-7.2-18-18.7h35.4
		C358.7,273.4,358.7,268.1,358.7,264.8z M334.1,248.4c9.8,0,14.8,5.6,15.1,16.4h-31.8C318.3,254.3,324.2,248.4,334.1,248.4
		L334.1,248.4z M390.8,265.5c-7.2-2.6-13.1-4.6-13.1-9.8c0-5.9,6.6-6.6,10.2-6.6c4.9-0.3,9.8,1.6,13.1,4.9c1,1,2,1.3,3.3,1.3
		c2.3,0,4.3-2,4.3-4.3c0-1-0.3-2-1-3c-4.9-5.6-12.1-8.9-19.4-8.2c-12.1,0-19.7,6.2-19.7,15.8c0,11.8,10.5,15.4,19.7,18.7
		c6.9,2.3,13.1,4.3,13.1,9.5c0,6.9-7.9,8.2-12.5,8.2c-5.6,0.3-11.2-2-15.1-5.9c-1-1-2-1.3-3.3-1.6c-2.3,0-4.3,2-4.3,4.3
		c0,1,0.3,2,1,3c5.6,6.2,13.5,9.5,22,9.2c13.8,0,22-6.6,22-17.1C410.2,272,400,268.8,390.8,265.5z M467.6,292.7L446,264.8l19.7-15.8
		c1.3-1,2-2.3,2-3.9c0-2.6-2-4.6-4.6-4.6c-1.3,0-2.3,0.3-3.3,1.3l-28.2,23v-50.5c0-2.6-2.3-4.6-4.9-4.6s-4.6,2-4.6,4.6v81.4
		c0,2.6,2.3,4.6,4.9,4.6c2.6,0,4.6-2,4.6-4.6V276l6.6-5.3l21.7,27.6c1,1.3,2.6,2.3,3.9,2.3c2.6,0,4.6-2,4.6-4.6
		C468.6,294.7,468.3,293.7,467.6,292.7z"/>
	<path class="st1" d="M-19.7,242.8v42"/>
	<path class="st2" d="M-75.8,228.7h42c7.9,0,14.1,6.2,14.1,14.1v42c0,30.8-24.9,55.8-55.8,55.8h-0.3c-30.8,0-55.8-24.9-55.8-55.8
		S-106.6,229.1-75.8,228.7z"/>
	<path class="st3" d="M-75.8,253.7c-14.1,0-25.6,11.5-25.6,25.6v17.4c0,4.6,3.9,8.5,8.5,8.5h7.2v-20h-9.8v-5.6
		c0.3-11.2,9.8-19.7,20.7-19c10.5,0.3,18.7,8.9,19,19v5.6h-9.8v20h6.6v0.3c0,4.3-3.6,7.9-7.9,7.9h-7.9c-0.7,0-1.3,0.3-1.3,1
		s0.7,1.3,1.3,1.3h7.9c5.6,0,10.2-4.6,10.2-10.2v-0.7c3.9-1,6.6-4.3,6.6-8.2v-17.1C-49.9,265.2-61.4,253.7-75.8,253.7z"/>
</g>
</svg>
