<svg height="512pt" viewBox="0 -5 512 511" width="512pt" xmlns="http://www.w3.org/2000/svg"><path d="m256 370.261719c-42.492188 0-77.066406-34.574219-77.066406-77.066407 0-42.496093 34.574218-77.066406 77.066406-77.066406s77.066406 34.570313 77.066406 77.066406c0 42.492188-34.574218 77.066407-77.066406 77.066407zm0-134.132813c-31.46875 0-57.066406 25.597656-57.066406 57.0625 0 31.46875 25.601562 57.066406 57.066406 57.066406s57.066406-25.597656 57.066406-57.066406c0-31.464844-25.597656-57.0625-57.066406-57.0625zm0 0"/><path d="m502 .5h-492c-5.523438 0-10 4.476562-10 10v58.421875c0 5.523437 4.476562 10 10 10h19.050781v412.15625c0 5.523437 4.476563 10 10 10h48.417969c5.519531 0 10-4.476563 10-10v-27.863281h317.0625v27.863281c0 5.523437 4.480469 10 10 10h48.417969c5.523437 0 10-4.476563 10-10v-412.15625h19.050781c5.523438 0 10-4.476563 10-10v-58.421875c0-5.523438-4.476562-10-10-10zm-424.53125 480.578125h-28.417969v-402.15625h28.417969zm20-37.863281v-313.703125h64.835938l31.8125 45.976562c-42.253907 22.300781-71.117188 66.695313-71.117188 117.707031 0 73.335938 59.664062 133 133 133s133-59.664062 133-133c0-51.011718-28.863281-95.40625-71.117188-117.707031l31.8125-45.976562h64.835938v313.703125zm158.53125-263.019532c62.308594 0 113 50.691407 113 113 0 62.308594-50.691406 113-113 113s-113-50.691406-113-113c0-62.308593 50.691406-113 113-113zm0-20c-15.101562 0-29.625 2.53125-43.167969 7.1875l-26.207031-37.871093h138.75l-26.207031 37.871093c-13.542969-4.65625-28.066407-7.1875-43.167969-7.1875zm206.949219 320.882813h-28.417969v-402.15625h28.417969zm29.050781-422.15625h-103.332031c-5.523438 0-10 4.476563-10 10s4.476562 10 10 10h25.863281v30.589844h-317.0625v-30.589844h188.523438c5.523437 0 10-4.476563 10-10s-4.476563-10-10-10h-265.992188v-38.421875h472zm0 0"/><path d="m339.671875 78.917969c-.652344 0-1.3125-.058594-1.960937-.1875-.640626-.132813-1.261719-.320313-1.871094-.570313-.601563-.25-1.179688-.5625-1.71875-.921875-.550782-.371093-1.0625-.777343-1.519532-1.238281-.460937-.460938-.882812-.980469-1.25-1.519531-.359374-.550781-.671874-1.132813-.921874-1.730469-.25-.601562-.4375-1.230469-.570313-1.871094-.128906-.648437-.1875-1.300781-.1875-1.960937 0-.648438.058594-1.300781.1875-1.949219.132813-.640625.320313-1.269531.570313-1.871094.25-.597656.5625-1.179687.921874-1.730468.367188-.539063.789063-1.058594 1.25-1.519532.457032-.457031.96875-.878906 1.519532-1.238281.539062-.359375 1.117187-.671875 1.71875-.921875.609375-.25 1.230468-.4375 1.871094-.570312 3.25-.648438 6.710937.410156 9.027343 2.730468.460938.460938.882813.980469 1.242188 1.519532.359375.550781.667969 1.132812.917969 1.730468.25.601563.441406 1.230469.570312 1.871094.128906.648438.199219 1.300781.199219 1.949219 0 .660156-.070313 1.3125-.199219 1.960937-.128906.640625-.320312 1.269532-.570312 1.871094-.25.597656-.558594 1.179688-.917969 1.730469-.359375.539062-.78125 1.058593-1.242188 1.519531-1.859375 1.859375-4.4375 2.917969-7.066406 2.917969zm0 0"/></svg>