<svg height="480pt" viewBox="-56 0 480 480" width="480pt" xmlns="http://www.w3.org/2000/svg"><path d="m184.558594 279.441406c4.160156 4.160156-.636719 16.796875-9.4375 32.238282 2.957031.242187 5.917968.320312 8.878906.320312 65.527344-.023438 120.445312-49.550781 127.21875-114.726562 6.773438-65.175782-36.785156-124.933594-100.90625-138.433594s-128.078125 23.625-148.15625 86 10.210938 129.839844 70.164062 156.28125c23.679688-15.601563 46.320313-27.601563 52.238282-21.679688zm-40.558594-95.441406c0-22.089844 17.910156-40 40-40s40 17.910156 40 40-17.910156 40-40 40-40-17.910156-40-40zm0 0" fill="#e3e3e5"/><path d="m224 184c0 22.089844-17.910156 40-40 40s-40-17.910156-40-40 17.910156-40 40-40 40 17.910156 40 40zm0 0" fill="#acabb1"/><path d="m184.558594 279.441406c-5.917969-5.921875-28.558594 6.078125-52.238282 21.679688-16 10.558594-32.320312 22.71875-44.320312 32.238281-7.921875 6.242187-13.921875 11.28125-16.558594 13.921875-3.535156 3.582031-6.191406 7.9375-7.761718 12.71875-4.589844 14.070312 1.070312 29.453125 13.683593 37.195312 12.609375 7.742188 28.886719 5.824219 39.355469-4.636718 9.320312-10.378906 18.078125-21.246094 26.242188-32.558594 11.652343-15.464844 22.390624-31.597656 32.160156-48.320312 8.800781-15.441407 13.597656-28.078126 9.4375-32.238282zm0 0" fill="#d80027"/><path d="m208 384h128v48h-128zm0 0" fill="#a0815c"/><path d="m71.441406 392.558594c-8.511718-8.527344-11.507812-21.109375-7.761718-32.558594 1.570312-4.78125 4.226562-9.136719 7.761718-12.71875 2.636719-2.640625 8.636719-7.679688 16.558594-13.921875v-29.359375h-48v128h144v-72h-41.039062c-8.164063 11.3125-16.921876 22.179688-26.242188 32.558594-12.511719 12.480468-32.765625 12.480468-45.277344 0zm0 0" fill="#acabb1"/><path d="m64 48c0 8.835938-7.164062 16-16 16s-16-7.164062-16-16 7.164062-16 16-16 16 7.164062 16 16zm0 0" fill="#c8c7cb"/><path d="m336 48c0 8.835938-7.164062 16-16 16s-16-7.164062-16-16 7.164062-16 16-16 16 7.164062 16 16zm0 0" fill="#c8c7cb"/><path d="m184 232c26.507812 0 48-21.492188 48-48s-21.492188-48-48-48-48 21.492188-48 48c.027344 26.5 21.5 47.972656 48 48zm0-80c17.671875 0 32 14.328125 32 32s-14.328125 32-32 32-32-14.328125-32-32 14.328125-32 32-32zm0 0" fill="#231f20"/><path d="m184.160156 192c4.417969 0 8-3.582031 8-8s-3.582031-8-8-8h-.082031c-4.417969.023438-7.980469 3.621094-7.957031 8.039062.019531 4.417969 3.621094 7.984376 8.039062 7.960938zm0 0" fill="#231f20"/><path d="m96.078125 376h.082031c2.316406-.019531 4.507813-1.058594 5.992188-2.839844l15.503906-15.503906c3.03125-3.140625 2.988281-8.128906-.097656-11.214844-3.085938-3.085937-8.074219-3.128906-11.214844-.097656l-16 16c-2.285156 2.289062-2.972656 5.730469-1.734375 8.71875s4.15625 4.9375 7.390625 4.9375zm0 0" fill="#231f20"/><path d="m360 24c0-8.835938-7.164062-16-16-16h-336v464h352zm-328 24c0-8.835938 7.164062-16 16-16s16 7.164062 16 16-7.164062 16-16 16-16-7.164062-16-16zm152 312v72h-144v-128h48v29.359375c12-9.519531 28.320312-21.679687 44.320312-32.238281-59.980468-26.449219-90.285156-93.9375-70.203124-156.339844 20.085937-62.398438 84.066406-99.539062 148.214843-86.035156 64.144531 13.503906 107.722657 73.289062 100.945313 138.492187-6.78125 65.199219-61.722656 114.742188-127.277344 114.761719-2.960938 0-5.921875-.078125-8.878906-.320312-9.769532 16.722656-20.507813 32.855468-32.160156 48.320312zm152 72h-128v-48h128zm-16-368c-8.835938 0-16-7.164062-16-16s7.164062-16 16-16 16 7.164062 16 16-7.164062 16-16 16zm0 0" fill="#565659"/><g fill="#231f20"><path d="m344 0h-336c-4.417969 0-8 3.582031-8 8v464c0 4.417969 3.582031 8 8 8h352c4.417969 0 8-3.582031 8-8v-448c0-13.253906-10.746094-24-24-24zm8 464h-336v-448h328c4.417969 0 8 3.582031 8 8zm0 0"/><path d="m184 352h-25.375c6.640625-9.390625 14.398438-20.921875 21-32.160156 1.453125.046875 2.910156.160156 4.375.160156 68.429688.101562 126.3125-50.589844 135.238281-118.433594 8.925781-67.847656-33.875-131.78125-100.003906-149.382812-66.128906-17.601563-135.050781 16.597656-161.035156 79.902344-25.980469 63.308593-.953125 136.066406 58.472656 169.992187-6.785156 4.730469-13.800781 9.832031-20.671875 15.011719v-13.089844c0-4.417969-3.582031-8-8-8h-48c-4.417969 0-8 3.582031-8 8v128c0 4.417969 3.582031 8 8 8h144c4.417969 0 8-3.582031 8-8v-72c0-4.417969-3.582031-8-8-8zm-112.71875 10.488281c1.175781-3.589843 3.171875-6.859375 5.824219-9.550781.910156-.914062 2.488281-2.3125 4.359375-3.914062 2.960937-2.535157 6.847656-5.726563 11.488281-9.375 14.070313-11.199219 30.023437-22.769532 43.742187-31.824219 25.425782-16.746094 36.703126-20.746094 41.105469-21.648438-2.15625 7.628907-5.410156 14.90625-9.65625 21.601563-9.621093 16.394531-20.171875 32.230468-31.601562 47.421875-7.925781 10.992187-16.425781 21.558593-25.464844 31.65625-7.84375 7.855469-20.054687 9.300781-29.519531 3.5s-13.714844-17.335938-10.277344-27.890625zm-7.28125-178.488281c0-65.722656 52.875-119.21875 118.59375-119.988281 65.71875-.773438 119.832031 51.46875 121.375 117.175781 1.539062 65.707031-50.0625 120.425781-115.746094 122.742188.320313-.691407.5625-1.296876.855469-1.953126.296875-.65625.65625-1.472656.953125-2.175781.601562-1.441406 1.113281-2.800781 1.601562-4.121093.183594-.527344.398438-1.078126.566407-1.601563.539062-1.640625.984375-3.3125 1.328125-5.007813.058594-.253906.058594-.476562.105468-.734374.21875-1.207032.355469-2.425782.40625-3.648438 0-.457031 0-.878906 0-1.3125-.019531-.855469-.101562-1.707031-.238281-2.550781-.082031-.425781-.160156-.800781-.273437-1.238281-.195313-.761719-.464844-1.5-.800782-2.210938-.140624-.3125-.269531-.648438-.4375-.949219-.554687-.96875-1.230468-1.863281-2.007812-2.65625-.550781-.542969-1.140625-1.039062-1.769531-1.488281-.175781-.128906-.375-.242188-.558594-.371094-.496094-.300781-1.007813-.566406-1.539063-.796875-.214843-.105469-.429687-.210937-.660156-.296875-.753906-.300781-1.527344-.535156-2.320312-.695312h-.121094c-.949219-.167969-1.910156-.253906-2.871094-.257813-.097656 0-.175781 0-.273437 0-.097657 0-.398438.039063-.582031.046875-.804688.023438-1.605469.085938-2.402344.195313l-1.03125.140625c-.984375.160156-2.03125.386718-3.136719.664062-.230469.066406-.449219.105469-.695313.167969-1.398437.386719-2.894531.867187-4.496093 1.449219l-.632813.242187c-1.390625.527344-2.871094 1.132813-4.421875 1.816407-.464843.199218-.945312.421874-1.417969.636718-1.429687.65625-2.929687 1.378906-4.503906 2.167969l-1.496094.753906c-2.0625 1.0625-4.207031 2.214844-6.511718 3.519531h-.046875c-2.34375 1.328126-4.847657 2.808594-7.472657 4.398438l-2.089843 1.289062c-1.933594 1.191407-3.933594 2.449219-6.023438 3.792969l-1.453125.910157c-41.429687-20.054688-67.746094-62.027344-67.753906-108.054688zm112 240h-128v-112h32v17.496094l-.441406.351562-1.597656 1.273438c-.992188.800781-1.960938 1.597656-2.984376 2.398437-.527343.433594-1.023437.800781-1.542968 1.28125-1.058594.878907-2.042969 1.71875-3.027344 2.566407l-1.277344 1.113281c-1.320312 1.160156-2.519531 2.253906-3.433594 3.199219-4.40625 4.464843-7.710937 9.890624-9.65625 15.855468-3.503906 10.484375-2.464843 21.960938 2.875 31.640625 5.335938 9.683594 14.484376 16.6875 25.222657 19.320313.75.191406 1.472656.511718 2.230469.65625 1.160156.222656 2.34375.214844 3.519531.335937 1.367187.203125 2.742187.332031 4.121093.390625.976563 0 1.953126-.207031 2.929688-.277344 9.597656-.53125 18.664062-4.585937 25.460938-11.386718.59375-.582032 1.28125-1.320313 2.042968-2.152344l.863282-.964844c.535156-.601562 1.0625-1.195312 1.65625-1.882812l1.160156-1.359375 1.757812-2.085938 1.386719-1.679687 1.855469-2.265625 1.597656-2 1.921875-2.398438 1.757813-2.242187c.640624-.800782 1.273437-1.597656 1.921874-2.457032l1.925782-2.488281 1.953125-2.550781 1.992187-2.617188c.265625-.359374.527344-.703124.800782-1.0625h29.007812zm0 0"/><path d="m336 376h-128c-4.417969 0-8 3.582031-8 8v48c0 4.417969 3.582031 8 8 8h128c4.417969 0 8-3.582031 8-8v-48c0-4.417969-3.582031-8-8-8zm-8 48h-112v-32h112zm0 0"/><path d="m72 48c0-13.253906-10.746094-24-24-24s-24 10.746094-24 24 10.746094 24 24 24 24-10.746094 24-24zm-32 0c0-4.417969 3.582031-8 8-8s8 3.582031 8 8-3.582031 8-8 8-8-3.582031-8-8zm0 0"/><path d="m320 24c-13.253906 0-24 10.746094-24 24s10.746094 24 24 24 24-10.746094 24-24-10.746094-24-24-24zm0 32c-4.417969 0-8-3.582031-8-8s3.582031-8 8-8 8 3.582031 8 8-3.582031 8-8 8zm0 0"/></g></svg>