<svg height="511pt" viewBox="1 -22 511.99995 511" width="511pt" xmlns="http://www.w3.org/2000/svg"><path d="m477.785156 232.828125v116.648437h-157.566406v-116.648437c-34.867188-23.078125-57.910156-60.414063-63.097656-101.597656h-1.128906v-15h-50.773438l-20.015625-40.027344h-185.203125v391.894531h511.988281v-267.082031c-9.488281 12.269531-20.988281 23.070313-34.203125 31.8125zm-417.75 115.175781v-30h118.996094v30zm118.996094 30.046875v30h-118.996094v-30zm0 0"/><path d="m350.21875 285.691406h97.570312v33.785156h-97.570312zm0 0"/><path d="m342.703125 211.476562 7.515625 4.328126v39.890624h33.785156v-78.738281l-43.679687-43.675781 21.214843-21.210938 37.464844 37.464844 37.460938-37.464844 21.214844 21.210938-43.675782 43.675781v78.738281h33.78125v-39.890624l7.515625-4.328126c34.972657-20.144531 56.699219-57.6875 56.699219-97.980468 0-30.0625-11.675781-58.359375-32.875-79.675782-21.1875-21.308593-49.398438-33.140624-79.4375-33.316406-.226562-.003906-.453125-.003906-.679688-.003906-29.886718 0-58.109374 11.703125-79.535156 33.007812-21.582031 21.453126-33.46875 49.863282-33.46875 79.992188.003906 40.289062 21.726563 77.832031 56.699219 97.976562zm0 0"/></svg>