<svg id="Capa_1" enable-background="new 0 0 512 512" height="512" viewBox="0 0 512 512" width="512" xmlns="http://www.w3.org/2000/svg"><g><g><path d="m503.49 462.654h-12.704v-127.462c11.643-3.279 20.204-13.987 20.204-26.664 0-15.275-12.428-27.703-27.704-27.703-14.869 0-27.035 11.776-27.672 26.49-13.276-14.877-21.868-39.265-27.25-61.002-7.362-29.739-10.062-59.864-10.943-72.855 11.45-3.402 19.827-14.016 19.827-26.556 0-15.275-12.428-27.703-27.703-27.703s-27.703 12.428-27.703 27.703c0 12.676 8.561 23.384 20.203 26.663v138.481l-27.427-47.943v-46.49c0-4.142-3.357-7.5-7.5-7.5h-12.703v-40.988c0-4.142-3.357-7.5-7.5-7.5h-181.83c-4.143 0-7.5 3.358-7.5 7.5v40.988h-12.703c-4.143 0-7.5 3.358-7.5 7.5v46.49l-27.427 47.943v-138.481c11.642-3.28 20.203-13.987 20.203-26.663 0-15.275-12.428-27.703-27.703-27.703s-27.703 12.428-27.703 27.703c0 12.54 8.378 23.155 19.829 26.556-.876 12.952-3.561 42.945-10.897 72.662-5.385 21.811-13.99 46.285-27.297 61.197-.636-14.716-12.803-26.493-27.672-26.493-15.276 0-27.704 12.428-27.704 27.703 0 12.677 8.562 23.384 20.204 26.664v127.462h-12.705c-4.143 0-7.5 3.358-7.5 7.5v34.347c0 4.142 3.357 7.5 7.5 7.5h101.902c4.143 0 7.5-3.358 7.5-7.5s-3.357-7.5-7.5-7.5h-53.995v-26.846c0-4.142-3.357-7.5-7.5-7.5h-7.829l45.158-78.945h36.413c4.143 0 7.5-3.358 7.5-7.5v-34.346c0-4.142-3.357-7.5-7.5-7.5h-8.19l34.761-60.764h142.057c4.143 0 7.5-3.358 7.5-7.5s-3.357-7.5-7.5-7.5h-138.905v-33.486h37.976c4.143 0 7.5-3.358 7.5-7.5s-3.357-7.5-7.5-7.5h-17.772v-33.488h166.83v33.488h-114.023c-4.143 0-7.5 3.358-7.5 7.5s3.357 7.5 7.5 7.5h134.226v33.487h-33.257c-4.143 0-7.5 3.358-7.5 7.5s3.357 7.5 7.5 7.5h36.409l34.761 60.764h-8.19c-4.143 0-7.5 3.358-7.5 7.5v34.346c0 4.142 3.357 7.5 7.5 7.5h36.413l45.158 78.945h-7.829c-4.143 0-7.5 3.358-7.5 7.5v26.845h-310.146c-4.143 0-7.5 3.358-7.5 7.5s3.357 7.5 7.5 7.5h358.052c4.143 0 7.5-3.358 7.5-7.5v-34.346c0-4.142-3.357-7.5-7.5-7.5zm-413.738-315.752c0-7.004 5.698-12.703 12.703-12.703s12.703 5.699 12.703 12.703-5.698 12.703-12.703 12.703-12.703-5.698-12.703-12.703zm-14.72 160.731c7.772-11.675 14.451-27.02 19.923-45.708v72.438h-12.703c-4.143 0-7.5 3.358-7.5 7.5v31.73l-38.538 67.372v-105.328c14.933-2.326 27.968-11.703 38.818-28.004zm-59.022.895c0-7.004 5.699-12.703 12.704-12.703s12.703 5.699 12.703 12.703c0 7.005-5.698 12.704-12.703 12.704s-12.704-5.699-12.704-12.704zm25.407 188.472h-25.407v-19.346h25.407zm73.741-128.291h-25.406v-19.346h25.406zm368.128-72.884c7.005 0 12.704 5.699 12.704 12.703 0 7.005-5.699 12.704-12.704 12.704s-12.703-5.699-12.703-12.704c0-7.004 5.698-12.703 12.703-12.703zm-46.318 11.808c10.85 16.301 23.885 25.678 38.818 28.004v105.328l-38.538-67.372v-31.73c0-4.142-3.357-7.5-7.5-7.5h-12.703v-72.438c5.472 18.689 12.151 34.033 19.923 45.708zm-40.126-160.731c0-7.004 5.698-12.703 12.703-12.703s12.703 5.699 12.703 12.703-5.698 12.703-12.703 12.703-12.703-5.698-12.703-12.703zm25.406 221.807h-25.406v-19.346h25.406zm73.742 128.291h-25.407v-19.346h25.407z"/><path d="m324.367 90.223 14.247 7.124c1.789.895 3.184 2.41 3.926 4.267l9.532 23.831c1.14 2.847 3.897 4.714 6.964 4.714s5.824-1.867 6.964-4.714l9.531-23.83c.743-1.858 2.139-3.374 3.928-4.268l14.247-7.124c2.541-1.271 4.146-3.867 4.146-6.708s-1.605-5.438-4.146-6.708l-14.247-7.124c-1.789-.895-3.185-2.41-3.927-4.267l-9.532-23.831c-1.14-2.847-3.897-4.714-6.964-4.714s-5.824 1.867-6.964 4.714l-9.532 23.832c-.742 1.856-2.137 3.372-3.926 4.266l-14.247 7.124c-2.54 1.27-4.146 3.867-4.146 6.708s1.605 5.437 4.146 6.708zm20.956-7.124c5.078-2.539 9.036-6.841 11.145-12.112l2.568-6.422 2.569 6.423c2.109 5.271 6.067 9.572 11.145 12.111l.831.416-.831.416c-5.077 2.539-9.035 6.84-11.146 12.112l-2.568 6.422-2.568-6.421c-2.108-5.272-6.066-9.574-11.145-12.113l-.831-.416z"/><path d="m118.294 90.223 14.247 7.124c1.789.895 3.185 2.41 3.927 4.267l9.532 23.83c1.14 2.847 3.897 4.714 6.964 4.714s5.824-1.867 6.964-4.714l9.532-23.832c.742-1.856 2.137-3.372 3.926-4.266l14.247-7.124c2.541-1.271 4.146-3.867 4.146-6.708s-1.605-5.438-4.146-6.708l-14.247-7.124c-1.789-.895-3.184-2.41-3.926-4.267l-9.532-23.831c-1.14-2.847-3.897-4.714-6.964-4.714s-5.824 1.867-6.964 4.714l-9.531 23.83c-.743 1.858-2.139 3.374-3.928 4.268l-14.247 7.124c-2.54 1.27-4.146 3.867-4.146 6.708s1.605 5.438 4.146 6.709zm20.956-7.124c5.077-2.539 9.035-6.84 11.146-12.112l2.568-6.422 2.568 6.421c2.108 5.272 6.066 9.574 11.145 12.113l.831.416-.831.416c-5.078 2.539-9.036 6.841-11.145 12.112l-2.568 6.422-2.569-6.423c-2.109-5.271-6.067-9.572-11.145-12.111l-.831-.416z"/><path d="m221.331 53.353 14.247 7.123c1.789.895 3.184 2.41 3.926 4.267l9.532 23.831c1.14 2.847 3.897 4.714 6.964 4.714s5.824-1.867 6.964-4.714l9.532-23.832c.742-1.856 2.137-3.372 3.925-4.266l14.248-7.124c2.541-1.271 4.146-3.868 4.146-6.708s-1.605-5.438-4.146-6.708l-14.248-7.124c-1.789-.895-3.184-2.41-3.926-4.267l-9.532-23.831c-1.139-2.847-3.897-4.714-6.963-4.714s-5.824 1.867-6.964 4.714l-9.532 23.832c-.742 1.856-2.137 3.372-3.926 4.266l-14.248 7.124c-2.54 1.271-4.146 3.867-4.146 6.708s1.606 5.438 4.147 6.709zm20.956-7.125c5.078-2.539 9.036-6.841 11.145-12.112l2.568-6.422 2.568 6.421c2.108 5.272 6.066 9.574 11.145 12.113l.832.416-.831.415h-.001c-5.078 2.539-9.036 6.841-11.145 12.112l-2.568 6.422-2.568-6.421c-2.108-5.272-6.066-9.574-11.146-12.113l-.831-.415z"/></g></g></svg>