<svg height="512pt" viewBox="0 0 512.02043 512" width="512pt" xmlns="http://www.w3.org/2000/svg"><path d="m496 213.34375h-138.667969c-8.832031 0-16-7.167969-16-16s7.167969-16 16-16h122.667969v-122.667969c0-8.832031 7.167969-16 16-16s16 7.167969 16 16v138.667969c0 8.832031-7.167969 16-16 16zm0 0"/><path d="m256 512.011719c-141.164062 0-256-114.839844-256-256 0-141.164063 114.835938-256.0000002 256-256.0000002 120.382812 0 227.839844 81.3632812 255.550781 193.4921872 2.113281 8.574219-3.113281 17.257813-11.710937 19.371094-8.574219 2.109375-17.257813-3.117188-19.371094-11.710938-24.210938-98.007812-118.613281-169.152343-224.46875-169.152343-123.519531 0-224 100.476562-224 224 0 123.519531 100.480469 224 224 224 59.820312 0 116.03125-23.320313 158.355469-65.644531 6.253906-6.25 16.386719-6.25 22.636719 0s6.25 16.382812 0 22.636718c-48.363282 48.359375-112.640626 75.007813-180.992188 75.007813zm0 0"/></svg>