<?xml version="1.0" encoding="UTF-8"?>
<svg xmlns="http://www.w3.org/2000/svg" viewBox="0 0 64 64" width="512" height="512"><g id="reseach"><path d="M10,42H30a4,4,0,0,0,0-8h-.073A6.846,6.846,0,0,0,30,33a7.008,7.008,0,0,0-7-7,6.654,6.654,0,0,0-5.3,2.668A6.3,6.3,0,0,0,15,28a6.006,6.006,0,0,0-6,6v.126A4,4,0,0,0,10,42Zm0-6a1,1,0,0,0,1-1V34a4,4,0,0,1,4-4,4.483,4.483,0,0,1,2.426.819,1,1,0,0,0,1.43-.3A4.842,4.842,0,0,1,23,28a4.988,4.988,0,0,1,4.709,6.667A1,1,0,0,0,28.651,36H30a2,2,0,0,1,0,4H10a2,2,0,0,1,0-4Z"/><path d="M16,21a4,4,0,1,0-4-4A4,4,0,0,0,16,21Zm0-6a2,2,0,1,1-2,2A2,2,0,0,1,16,15Z"/><path d="M50,41a6.958,6.958,0,0,0,4.184-1.4l3.109,3.108,1.414-1.414L55.6,38.185A6.991,6.991,0,1,0,50,41Zm0-12a5,5,0,1,1-5,5A5.006,5.006,0,0,1,50,29Z"/><path d="M55,24v3h2V24a5.006,5.006,0,0,0-5-5H49v2h3A3,3,0,0,1,55,24Z"/><path d="M17,5a1,1,0,0,1,1-1h8V2H18a3,3,0,0,0-3,3V6h2Z"/><path d="M59,14H47V6c0-2.75-5.18-4-10-4S27,3.25,27,6v8H24.12l-.55-.14.36-.59a1,1,0,0,0-.15-1.22L20.95,9.22a1,1,0,0,0-1.22-.15l-.59.36-.17-.67A1,1,0,0,0,18,8H14a1,1,0,0,0-.97.76l-.17.67-.59-.36a1.014,1.014,0,0,0-1.22.15L8.22,12.05a1,1,0,0,0-.15,1.22l.36.59L7.88,14H5a3.009,3.009,0,0,0-3,3V49a3.009,3.009,0,0,0,3,3H25v4H20a3,3,0,0,0,0,6H44a3,3,0,0,0,0-6H39V52H59a3.009,3.009,0,0,0,3-3V17A3.009,3.009,0,0,0,59,14ZM37,4c5.25,0,8,1.49,8,2s-2.75,2-8,2-8-1.49-8-2S31.75,4,37,4ZM29,8.52A18.866,18.866,0,0,0,37,10a18.866,18.866,0,0,0,8-1.48V12c0,.51-2.75,2-8,2s-8-1.49-8-2Zm0,6A18.866,18.866,0,0,0,37,16a18.866,18.866,0,0,0,8-1.48V18c0,.51-2.75,2-8,2s-8-1.49-8-2Zm0,6A18.866,18.866,0,0,0,37,22a18.866,18.866,0,0,0,8-1.48V24c0,.51-2.75,2-8,2s-8-1.49-8-2ZM9,15.78l1.22-.3a1.007,1.007,0,0,0,.68-.59.989.989,0,0,0-.07-.9l-.64-1.08,1.72-1.72,1.08.64a.989.989,0,0,0,.9.07,1.007,1.007,0,0,0,.59-.68l.3-1.22h2.44l.3,1.22a1.007,1.007,0,0,0,.59.68.989.989,0,0,0,.9-.07l1.08-.64,1.72,1.72-.64,1.08a.989.989,0,0,0-.07.9,1.007,1.007,0,0,0,.68.59l1.22.3v2.44l-1.22.3a1.007,1.007,0,0,0-.68.59.989.989,0,0,0,.07.9l.64,1.08-1.72,1.72-1.08-.65a1.019,1.019,0,0,0-.9-.06,1.007,1.007,0,0,0-.59.68L17.22,24H14.78l-.3-1.22a1.007,1.007,0,0,0-.59-.68,1.019,1.019,0,0,0-.9.06l-1.08.65-1.72-1.72.64-1.08a.989.989,0,0,0,.07-.9,1.007,1.007,0,0,0-.68-.59L9,18.22ZM44,58a1,1,0,0,1,0,2H20a1,1,0,0,1,0-2ZM27,56V52H37v4Zm33-7a1,1,0,0,1-1,1H5a1,1,0,0,1-1-1V46H60Zm0-5H4V17a1,1,0,0,1,1-1H7v3a1,1,0,0,0,.76.97l.67.17-.36.59a1,1,0,0,0,.15,1.22l2.83,2.83a1.014,1.014,0,0,0,1.22.15l.59-.36.17.67A1,1,0,0,0,14,26h4a1,1,0,0,0,.97-.76l.17-.67.59.36a1.014,1.014,0,0,0,1.22-.15l2.83-2.83a1,1,0,0,0,.15-1.22l-.36-.59.67-.17A1,1,0,0,0,25,19V16h2v8c0,2.75,5.18,4,10,4s10-1.25,10-4V16H59a1,1,0,0,1,1,1Z"/><rect x="49" y="33" width="2" height="2"/><rect x="23" y="31" width="2" height="2"/></g></svg>
