<svg id="Capa_1" enable-background="new 0 0 510.914 510.914" height="512" viewBox="0 0 510.914 510.914" width="512" xmlns="http://www.w3.org/2000/svg"><g id="XMLID_116_"><path id="XMLID_346_" d="m280.99 388.995h-120.937v-30h119.917c5.392-52.646 48.041-94.418 101.074-98.443v-257.833h-381.044v505.476h381.044v-28.16c-50.521-3.835-91.611-41.927-100.054-91.04zm-182.649-110.034c8.409 0 14.636 6.873 15 15 .363 8.101-7.154 15-15 15-8.409 0-14.636-6.873-15-15-.363-8.1 7.154-15 15-15zm-15-68.246c-.363-8.101 7.154-15 15-15 8.409 0 14.636 6.873 15 15 .363 8.101-7.154 15-15 15-8.409 0-14.636-6.873-15-15zm15 151.493c8.409 0 14.636 6.873 15 15 .363 8.101-7.154 15-15 15-8.409 0-14.636-6.873-15-15-.363-8.101 7.154-15 15-15zm0-219.74c-8.409 0-14.636-6.873-15-15-.363-8.101 7.154-15 15-15 8.409 0 14.636 6.873 15 15 .363 8.101-7.154 15-15 15zm196.566 164.887h-134.854v-30h134.854zm0-81.64h-134.854v-30h134.854zm0-81.641h-134.854v-30h134.854z"/><path id="XMLID_372_" d="m327.454 361.703 18.77-23.4 44.87 35.98 62.32-52.1c-14.62-19.39-37.85-31.95-63.96-31.95-44.14 0-80.06 35.91-80.06 80.06 0 44.14 35.92 80.06 80.06 80.06 44.15 0 80.06-35.92 80.06-80.06 0-7.01-.91-13.81-2.6-20.29l-75.42 63.05z"/><path id="XMLID_374_" d="m453.414 322.183c6.18 8.2 10.82 17.61 13.5 27.82l44-36.78-19.24-23.02z"/></g></svg>