<?xml version="1.0" encoding="iso-8859-1"?>
<!-- Generator: Adobe Illustrator 19.0.0, SVG Export Plug-In . SVG Version: 6.00 Build 0)  -->
<svg version="1.1" id="Capa_1" xmlns="http://www.w3.org/2000/svg" xmlns:xlink="http://www.w3.org/1999/xlink" x="0px" y="0px"
	 viewBox="0 0 512 512" style="enable-background:new 0 0 512 512;" xml:space="preserve">
<g>
	<g>
		<path d="M255.992,0c-97.056,0-176,78.944-176,176s78.944,176,176,176c97.024,0,176-78.944,176-176S353.016,0,255.992,0z
			 M348.504,151.104l-30.4,38.08l3.328,49.76c0.384,5.536-2.144,10.88-6.72,14.112c-2.784,1.952-6.016,2.944-9.28,2.944
			c-2.112,0-4.256-0.416-6.24-1.28l-43.2-18.336l-43.168,18.336c-5.12,2.176-11.008,1.568-15.52-1.664
			c-4.544-3.232-7.072-8.576-6.72-14.112l3.328-49.76l-30.4-38.08c-3.392-4.224-4.384-9.888-2.688-15.04
			c1.696-5.152,5.888-9.056,11.136-10.432l45.376-11.872l24.896-41.92c5.76-9.728,21.76-9.728,27.488,0l24.896,41.92l45.408,11.872
			c5.216,1.376,9.408,5.312,11.136,10.432C352.888,141.184,351.864,146.848,348.504,151.104z"/>
	</g>
</g>
<g>
	<g>
		<path d="M75.992,279.776L2.136,408c-3.232,5.632-2.752,12.64,1.184,17.76s10.56,7.424,16.832,5.696l93.952-25.248l24.992,93.952
			c1.664,6.24,6.944,10.88,13.344,11.744c0.704,0.064,1.44,0.096,2.112,0.096c5.664,0,10.976-3.008,13.856-8l69.856-120.896
			C168.856,377.216,109.208,337.12,75.992,279.776z"/>
	</g>
</g>
<g>
	<g>
		<path d="M509.88,408l-73.888-128.224c-33.184,57.344-92.864,97.44-162.272,103.328L343.576,504c2.88,4.992,8.192,8,13.856,8
			c0.672,0,1.408-0.032,2.08-0.128c6.432-0.864,11.68-5.504,13.376-11.744l24.992-93.952l93.952,25.248
			c6.272,1.728,12.864-0.576,16.832-5.696C512.632,420.64,513.08,413.632,509.88,408z"/>
	</g>
</g>
<g>
</g>
<g>
</g>
<g>
</g>
<g>
</g>
<g>
</g>
<g>
</g>
<g>
</g>
<g>
</g>
<g>
</g>
<g>
</g>
<g>
</g>
<g>
</g>
<g>
</g>
<g>
</g>
<g>
</g>
</svg>
