<?xml version="1.0" encoding="iso-8859-1"?>
<!-- Generator: Adobe Illustrator 19.0.0, SVG Export Plug-In . SVG Version: 6.00 Build 0)  -->
<svg version="1.1" id="Capa_1" xmlns="http://www.w3.org/2000/svg" xmlns:xlink="http://www.w3.org/1999/xlink" x="0px" y="0px"
	 viewBox="0 0 512 512" style="enable-background:new 0 0 512 512;" xml:space="preserve">
<g>
	<g>
		<g>
			<path d="M437.333,405.323H266.667c-5.888,0-10.667,4.779-10.667,10.667s4.779,10.667,10.667,10.667h170.667
				c5.888,0,10.667-4.779,10.667-10.667S443.221,405.323,437.333,405.323z"/>
			<path d="M437.333,447.989H266.667c-5.888,0-10.667,4.779-10.667,10.667c0,5.888,4.779,10.667,10.667,10.667h170.667
				c5.888,0,10.667-4.779,10.667-10.667C448,452.768,443.221,447.989,437.333,447.989z"/>
			<path d="M74.667,405.323c-17.643,0-32,14.357-32,32c0,17.643,14.357,32,32,32c17.643,0,32-14.357,32-32
				C106.667,419.68,92.309,405.323,74.667,405.323z M74.667,447.989c-5.888,0-10.667-4.779-10.667-10.667
				c0-5.888,4.779-10.667,10.667-10.667s10.667,4.779,10.667,10.667C85.333,443.211,80.555,447.989,74.667,447.989z"/>
			<path d="M74.667,277.323c-17.643,0-32,14.357-32,32c0,17.643,14.357,32,32,32c17.643,0,32-14.357,32-32
				C106.667,291.68,92.309,277.323,74.667,277.323z M74.667,319.989c-5.888,0-10.667-4.779-10.667-10.667
				s4.779-10.667,10.667-10.667s10.667,4.779,10.667,10.667S80.555,319.989,74.667,319.989z"/>
			<path d="M437.333,191.989H266.667c-5.888,0-10.667,4.779-10.667,10.667s4.779,10.667,10.667,10.667h170.667
				c5.888,0,10.667-4.779,10.667-10.667S443.221,191.989,437.333,191.989z"/>
			<path d="M512,202.656v-42.667c0-10.24-3.051-19.733-8.085-27.883c-0.149-0.299-0.171-0.64-0.341-0.917L437.611,25.163
				C427.819,9.419,410.88,0.011,392.32,0.011H119.744c-18.581,0-35.499,9.408-45.291,25.152L8.491,131.189
				c-0.107,0.171-0.107,0.363-0.213,0.555C3.115,139.957,0,149.6,0,159.989v42.667c0,17.493,8.597,32.939,21.675,42.667
				C8.597,255.072,0,270.496,0,287.989v42.667c0,17.493,8.597,32.939,21.675,42.667C8.597,383.072,0,398.496,0,415.989v42.667
				c0,29.397,23.936,53.333,53.333,53.333h405.333c29.397,0,53.333-23.936,53.333-53.333v-42.667
				c0-17.493-8.597-32.939-21.675-42.667C503.403,363.595,512,348.149,512,330.656v-42.667c0-17.493-8.597-32.939-21.675-42.667
				C503.403,235.595,512,220.171,512,202.656z M92.565,36.427c5.867-9.451,16.021-15.104,27.157-15.104h272.576
				c11.136,0,21.291,5.653,27.157,15.104l44.011,70.72c-1.6-0.149-3.157-0.491-4.8-0.491H53.333c-1.643,0-3.179,0.341-4.779,0.491
				L92.565,36.427z M490.667,415.989v42.667c0,17.643-14.357,32-32,32H53.333c-17.643,0-32-14.357-32-32v-42.667
				c0-17.643,14.357-32,32-32h405.333C476.309,383.989,490.667,398.347,490.667,415.989z M490.667,287.989v42.667
				c0,17.643-14.357,32-32,32H53.333c-17.643,0-32-14.357-32-32v-42.667c0-17.643,14.357-32,32-32h405.333
				C476.309,255.989,490.667,270.347,490.667,287.989z M490.667,202.656c0,17.643-14.357,32-32,32H53.333c-17.643,0-32-14.357-32-32
				v-42.667c0-17.643,14.357-32,32-32h405.333c17.643,0,32,14.357,32,32V202.656z"/>
			<path d="M437.333,149.323H266.667c-5.888,0-10.667,4.779-10.667,10.667s4.779,10.667,10.667,10.667h170.667
				c5.888,0,10.667-4.779,10.667-10.667S443.221,149.323,437.333,149.323z"/>
			<path d="M437.333,319.989H266.667c-5.888,0-10.667,4.779-10.667,10.667s4.779,10.667,10.667,10.667h170.667
				c5.888,0,10.667-4.779,10.667-10.667S443.221,319.989,437.333,319.989z"/>
			<path d="M437.333,277.323H266.667c-5.888,0-10.667,4.779-10.667,10.667s4.779,10.667,10.667,10.667h170.667
				c5.888,0,10.667-4.779,10.667-10.667S443.221,277.323,437.333,277.323z"/>
			<path d="M74.667,149.323c-17.643,0-32,14.357-32,32c0,17.643,14.357,32,32,32c17.643,0,32-14.357,32-32
				C106.667,163.68,92.309,149.323,74.667,149.323z M74.667,191.989c-5.888,0-10.667-4.779-10.667-10.667
				s4.779-10.667,10.667-10.667s10.667,4.779,10.667,10.667S80.555,191.989,74.667,191.989z"/>
		</g>
	</g>
</g>
<g>
</g>
<g>
</g>
<g>
</g>
<g>
</g>
<g>
</g>
<g>
</g>
<g>
</g>
<g>
</g>
<g>
</g>
<g>
</g>
<g>
</g>
<g>
</g>
<g>
</g>
<g>
</g>
<g>
</g>
</svg>
