<svg id="Layer_1" enable-background="new 0 0 512 512" height="512" viewBox="0 0 512 512" width="512" xmlns="http://www.w3.org/2000/svg"><g><path d="m398.724 148.345 15.237-20.855c2.984 1.963 6.366 2.924 9.726 2.924 5.482 0 10.895-2.523 14.37-7.279l4.986-6.824c7.464-9.786 5.106-24.937-4.98-31.99l-29.923-21.864c-9.785-7.466-24.937-5.107-31.991 4.979l-4.985 6.824c-2.8 3.832-3.94 8.525-3.21 13.214.685 4.399 2.954 8.286 6.393 11.063l-15.206 20.81c-21.36-12.102-45.035-20.569-70.185-24.552v-32.259h7.486c9.797 0 17.767-7.97 17.767-17.767v-17.093c-.001-15.261-12.417-27.676-27.677-27.676h-61.064c-15.26 0-27.676 12.415-27.676 27.676v17.094c0 9.797 7.97 17.767 17.767 17.767h7.486v32.265c-24.893 3.95-48.641 12.319-70.22 24.498l-15.172-20.762c3.44-2.777 5.708-6.664 6.393-11.063.73-4.689-.41-9.382-3.209-13.214l-4.986-6.824c-7.054-10.086-22.205-12.446-31.991-4.979l-29.922 21.862c-10.087 7.054-12.444 22.204-4.98 31.991l4.986 6.825c3.475 4.756 8.886 7.279 14.369 7.279 3.361 0 6.743-.961 9.727-2.924l15.162 20.753c-16.437 15.251-30.57 33.258-41.642 53.582-1.986 3.644-.641 8.208 3.004 10.194 3.645 1.987 8.208.641 10.194-3.004 34.202-62.784 99.819-101.786 171.242-101.786 107.452 0 194.87 87.418 194.87 194.87 0 46.797-16.833 92.038-47.399 127.389-2.714 3.139-2.37 7.885.77 10.599 3.125 2.706 7.876 2.38 10.599-.77 32.926-38.082 51.06-86.814 51.06-137.219 0-60.668-25.884-115.397-67.176-153.754zm-15.425-65.218 4.986-6.824c2.427-3.462 7.612-4.278 10.988-1.71l29.924 21.863c3.501 2.558 4.269 7.487 1.71 10.989l-4.985 6.824c-.891 1.219-2.606 1.485-3.826.596l-38.202-27.912c-.796-.582-1.025-1.37-1.09-1.789-.066-.419-.088-1.24.495-2.037zm3.158 24.311 15.349 11.214-14.488 19.83c-4.935-3.968-10.05-7.719-15.335-11.237zm-173.635-62.669v-17.093c0-6.973 5.673-12.646 12.646-12.646h61.064c6.973 0 12.646 5.673 12.646 12.646v17.094c0 1.51-1.228 2.738-2.738 2.738h-80.88c-1.51-.001-2.738-1.229-2.738-2.739zm-126.743 69.5-4.986-6.824c-2.558-3.501-1.791-8.431 1.711-10.989l29.924-21.863c3.377-2.568 8.562-1.751 10.988 1.71l4.986 6.825c.888 1.691.765 2.485-.596 3.825l-38.202 27.911c-1.218.89-2.934.623-3.825-.595zm24.116 4.383 15.349-11.214 14.421 19.735c-5.278 3.501-10.397 7.247-15.347 11.219zm127.88-25.687v-30.429h35.85v30.438c-5.911-.502-11.886-.773-17.925-.773-6.018 0-11.997.257-17.925.764z"/><path d="m382.971 449.932c-35.283 30.333-80.376 47.038-126.971 47.038-107.452 0-194.87-87.418-194.87-194.87 0-22.897 3.931-45.315 11.685-66.628 1.419-3.9-.593-8.212-4.493-9.631-3.899-1.42-8.212.592-9.631 4.493-8.355 22.965-12.592 47.111-12.592 71.766.002 115.74 94.162 209.9 209.901 209.9 50.188 0 98.76-17.995 136.768-50.671 3.147-2.706 3.505-7.45.799-10.597-2.705-3.147-7.45-3.504-10.596-.8z"/><path d="m362.552 179.012c2.57-3.258 2.013-7.983-1.245-10.554-30.261-23.876-66.676-36.496-105.306-36.496-93.816 0-170.14 76.324-170.14 170.139 0 93.816 76.324 170.14 170.14 170.14s170.14-76.324 170.14-170.14c0-41.214-14.927-80.978-42.03-111.964-2.732-3.125-7.479-3.442-10.603-.709-3.124 2.732-3.441 7.479-.709 10.604 23.055 26.358 36.439 59.686 38.126 94.555h-23.058c-4.15 0-7.515 3.365-7.515 7.515s3.364 7.515 7.515 7.515h23.059c-3.815 79.561-67.85 143.596-147.411 147.41v-23.059c0-4.15-3.365-7.515-7.515-7.515s-7.515 3.364-7.515 7.515v23.059c-79.561-3.814-143.596-67.85-147.411-147.41h23.059c4.15 0 7.515-3.365 7.515-7.515s-3.364-7.515-7.515-7.515h-23.059c3.814-79.561 67.85-143.597 147.411-147.411v23.059c0 4.15 3.364 7.515 7.515 7.515 4.15 0 7.515-3.364 7.515-7.515v-23.062c32.417 1.52 62.87 12.876 88.482 33.084 3.259 2.57 7.984 2.013 10.555-1.245z"/><path d="m256 273.271c-15.897 0-28.83 12.933-28.83 28.83s12.933 28.83 28.83 28.83c5.226 0 10.127-1.405 14.358-3.845l51.561 51.561c2.935 2.935 7.693 2.935 10.627 0 2.935-2.934 2.935-7.693 0-10.627l-51.561-51.561c2.441-4.231 3.845-9.132 3.845-14.357.001-15.899-12.933-28.831-28.83-28.831zm-13.801 28.83c0-7.61 6.191-13.801 13.801-13.801s13.801 6.191 13.801 13.801-6.191 13.8-13.801 13.8-13.801-6.191-13.801-13.8z"/></g></svg>