<svg id="Capa_1" enable-background="new 0 0 512.002 512.002" height="512" viewBox="0 0 512.002 512.002" width="512" xmlns="http://www.w3.org/2000/svg"><g><path d="m448.774 297.352h-48c-4.143 0-7.5 3.358-7.5 7.5s3.357 7.5 7.5 7.5h48c4.143 0 7.5-3.358 7.5-7.5s-3.357-7.5-7.5-7.5z"/><path d="m448.774 328.181h-48c-4.143 0-7.5 3.358-7.5 7.5s3.357 7.5 7.5 7.5h48c4.143 0 7.5-3.358 7.5-7.5s-3.357-7.5-7.5-7.5z"/><path d="m448.774 266.523h-48c-4.143 0-7.5 3.358-7.5 7.5s3.357 7.5 7.5 7.5h48c4.143 0 7.5-3.358 7.5-7.5s-3.357-7.5-7.5-7.5z"/><path d="m339.057 256.769c-6.689 0-12.131 5.442-12.131 12.131v7.107h-17.598c-6.688 0-12.13 5.442-12.13 12.13v6.414h-17.646c-6.688 0-12.13 5.442-12.13 12.13v35.124c0 6.138 4.993 11.131 11.13 11.131h82.021c6.137 0 11.13-4.993 11.13-11.131v-72.905c0-6.689-5.441-12.131-12.13-12.131zm-41.859 81.167h-14.776v-28.385h14.776zm29.728 0h-14.728c0-9.127 0-37.624 0-46.929h14.728zm29.776 0h-14.728c0-48.509-.049-63.931-.049-66.167h14.776v66.167z"/><path d="m18.445 476.57h126.722c4.143 0 7.5-3.358 7.5-7.5s-3.357-7.5-7.5-7.5h-77.065v-100.757c0-4.142-3.357-7.5-7.5-7.5s-7.5 3.358-7.5 7.5v100.757h-34.657c-1.899 0-3.445-1.545-3.445-3.445v-106.157c0-23.734 16.808-39.292 28.143-43.985l48.768-19.046 29.025 29.024c10.642 10.645 25.481 17.294 41.731 17.293 15.665-.001 30.648-6.213 41.732-17.292l28.616-28.617v99.261c0 10.613 8.634 19.247 19.246 19.247h4.971v53.719h-77.065c-4.143 0-7.5 3.358-7.5 7.5s3.357 7.5 7.5 7.5h126.722c10.171 0 18.445-8.274 18.445-18.445v-50.274h31.13v22.999c-9.277 3.137-15.978 11.919-15.978 22.242 0 12.946 10.532 23.478 23.478 23.478s23.478-10.532 23.478-23.478c0-10.323-6.7-19.105-15.978-22.242v-22.999h104.202c10.612 0 19.246-8.634 19.246-19.247v-66.252c0-4.142-3.357-7.5-7.5-7.5s-7.5 3.358-7.5 7.5v66.252c0 2.342-1.905 4.247-4.246 4.247h-157.832-65.572c-2.341 0-4.246-1.905-4.246-4.247 0-4.725 0-170.623 0-175.348h231.896v74.096c0 4.142 3.357 7.5 7.5 7.5s7.5-3.358 7.5-7.5v-74.096h.005c9.421 0 17.085-7.665 17.085-17.086v-14.456c0-9.421-7.664-17.085-17.085-17.085h-236.421c-1.536-8.178-6.163-15.469-12.736-20.241.717-1.996 1.128-4.137 1.128-6.377v-48.445c0-15.866-13.747-27.513-27.929-26.424-1.765.137-3.75-.767-4.139-2.753-3.285-16.795-13.837-24.96-32.258-24.96h-63.65c-27.459 0-49.798 22.339-49.798 49.798v46.421c0 6.504 2.468 12.442 6.514 16.93-5.831 5.91-9.364 13.864-9.364 22.054 0 15.291 11.935 28.898 28.783 30.797 2.41 17.226 11.648 33.875 26.502 44.956v14.87c-8.437 3.296-74.998 29.291-83.934 32.781-.042.017-.084.034-.126.051-18.055 7.431-37.489 28.713-37.489 57.879v106.158c0 10.17 8.274 18.444 18.445 18.444zm345.519-31.955c4.675 0 8.478 3.803 8.478 8.478s-3.803 8.478-8.478 8.478-8.478-3.803-8.478-8.478 3.803-8.478 8.478-8.478zm-91.732-36.763h38.102v50.274c0 1.899-1.546 3.445-3.445 3.445h-34.656v-53.719zm-129.144-92.197c8.948-9.009 5.698-5.737 14.674-14.773.01-.01.018-.021.027-.031.661-.67 1.287-1.511 1.67-2.131h6.288c.402.657 1.047 1.506 1.699 2.162l14.715 14.814c-12.292 6.092-26.794 6.076-39.073-.041zm-6.549-52.607c.007-.19.011-.381.011-.574v-7.701c15.472 6.174 34.761 7.176 52.191.118l.007 7.64c0 .143.003.286.008.429-8.7 8.638-12.465 12.376-20.909 20.76h-10.485c-5.279-5.239-16.578-16.457-20.823-20.672zm57.868 43.692c-1.44-1.449-12.47-12.554-14.128-14.224l17.391-17.267c10.573 4.095 9.995 3.871 20.347 7.88zm38.609-33.888-29.268-11.334-.013-15.053c11.283-8.413 19.855-20.268 24.144-33.998 1.621.512 3.344.791 5.132.791h.005zm261.901-93.223c1.149 0 2.085.936 2.085 2.085v14.456c0 1.15-.936 2.086-2.085 2.086-12.603 0-249.057 0-261.906 0-1.149 0-2.085-.936-2.085-2.086 0-8.243 0-6.46 0-14.456 0-1.15.936-2.086 2.085-2.086 15.46.001 246.645.001 261.906.001zm-259.619-24.158c3.516 1.952 6.277 5.278 7.704 9.157h-9.991c-.68 0-1.627.07-2.085.126v-8.032c1.486-.235 3.176-.744 4.372-1.251zm-140.889 30.66c-7.471-1.78-13.145-7.985-13.145-15.498 0-5.487 3.312-11.01 8.286-14.149 1.182.231 2.392.384 3.625.444.411.021.822.031 1.233.032v29.171zm.015-44.172c-5.558 0-10.31-4.532-10.31-10.31v-46.42c0-19.188 15.61-34.798 34.798-34.798h63.65c13.895 0 16.163 5.815 17.537 12.839 1.798 9.194 10.413 15.567 20.01 14.83 5.556-.424 11.778 4.439 11.778 11.468v48.442c0 2.158-1.863 3.949-3.949 3.949-7.987 0-14.342-6.597-14.342-14.342 0-8.973-12.041-11.927-16.233-4.078-6.074 11.361-17.838 18.419-30.698 18.419-10.479.001-61.745.001-72.241.001zm14.985 50.452v-35.452h57.256c13.449 0 26.316-5.435 35.66-15.038 3.069 5.474 7.848 9.859 13.601 12.452v38.037c0 29.227-23.885 52.391-52.392 52.391-32.67.001-54.125-25.387-54.125-52.39zm17.965 82.675c11.399 11.318 7.061 7.011 17.556 17.431-7.614 7.665-4.857 4.89-14.065 14.16l-23.698-23.698z"/></g></svg>