<svg id="Capa_1" enable-background="new 0 0 512 512" height="512" viewBox="0 0 512 512" width="512" xmlns="http://www.w3.org/2000/svg"><g><path d="m507.479 219.117-31.123-13.474c-1.239-5.433-2.691-10.861-4.339-16.213l20.212-27.229c1.782-2.401 1.968-5.631.473-8.22l-30-51.961c-1.496-2.591-4.385-4.044-7.36-3.7l-33.733 3.915c-3.794-4.084-7.759-8.049-11.843-11.843l3.915-33.733c.345-2.972-1.109-5.864-3.7-7.36l-51.961-30c-2.589-1.495-5.819-1.309-8.22.473l-27.23 20.211c-5.353-1.648-10.78-3.101-16.213-4.339l-13.474-31.123c-1.188-2.745-3.893-4.521-6.883-4.521h-60c-2.99 0-5.695 1.776-6.883 4.521l-13.474 31.123c-5.433 1.239-10.861 2.691-16.213 4.339l-27.229-20.212c-2.4-1.783-5.63-1.968-8.22-.473l-51.962 30c-2.591 1.496-4.045 4.388-3.7 7.36l3.915 33.733c-4.083 3.794-8.048 7.759-11.843 11.843l-33.733-3.915c-2.974-.345-5.864 1.109-7.36 3.7l-30 51.961c-1.495 2.589-1.309 5.819.473 8.22l20.212 27.229c-1.648 5.354-3.101 10.781-4.339 16.213l-31.123 13.475c-2.745 1.188-4.521 3.893-4.521 6.883v60c0 2.99 1.776 5.695 4.521 6.883l31.123 13.474c1.239 5.432 2.691 10.86 4.339 16.213l-20.212 27.229c-1.782 2.401-1.968 5.631-.473 8.22l30 51.962c1.496 2.59 4.389 4.047 7.36 3.7l33.733-3.915c3.795 4.083 7.76 8.048 11.843 11.843l-3.915 33.733c-.345 2.972 1.109 5.864 3.7 7.36l51.962 30c2.59 1.496 5.819 1.309 8.22-.473l27.229-20.212c5.354 1.648 10.781 3.101 16.213 4.339l13.474 31.123c1.188 2.745 3.893 4.521 6.883 4.521h60c2.99 0 5.695-1.776 6.883-4.521l13.474-31.123c5.432-1.239 10.86-2.691 16.213-4.339l27.229 20.212c2.4 1.783 5.631 1.969 8.22.473l51.961-30c2.591-1.496 4.045-4.388 3.7-7.36l-3.915-33.733c4.084-3.795 8.049-7.76 11.843-11.843l33.733 3.915c2.975.345 5.864-1.11 7.36-3.7l30-51.962c1.495-2.589 1.309-5.819-.473-8.22l-20.212-27.229c1.648-5.353 3.101-10.78 4.339-16.213l31.123-13.474c2.746-1.188 4.522-3.893 4.522-6.883v-60c0-2.99-1.776-5.695-4.521-6.883zm-10.479 61.957-30.128 13.043c-2.236.968-3.862 2.961-4.361 5.346-1.557 7.432-3.552 14.89-5.931 22.165-.756 2.313-.344 4.848 1.106 6.801l19.563 26.355-25.073 43.428-32.651-3.789c-2.419-.278-4.822.63-6.447 2.441-5.088 5.67-10.544 11.125-16.214 16.214-1.812 1.625-2.721 4.029-2.441 6.447l3.789 32.651-43.428 25.073-26.356-19.563c-1.953-1.45-4.488-1.863-6.801-1.106-7.276 2.379-14.734 4.375-22.165 5.93-2.385.499-4.378 2.125-5.346 4.361l-13.042 30.129h-50.148l-13.043-30.129c-.968-2.236-2.961-3.862-5.346-4.361-7.431-1.556-14.888-3.551-22.165-5.93-2.312-.756-4.848-.344-6.801 1.106l-26.355 19.563-43.428-25.073 3.789-32.651c.28-2.417-.629-4.821-2.44-6.446-5.67-5.089-11.126-10.545-16.215-16.215-1.625-1.812-4.028-2.717-6.446-2.44l-32.651 3.789-25.075-43.428 19.563-26.355c1.45-1.953 1.863-4.489 1.106-6.801-2.379-7.276-4.375-14.734-5.93-22.165-.499-2.385-2.125-4.378-4.361-5.346l-30.128-13.044v-50.148l30.129-13.043c2.236-.968 3.862-2.961 4.361-5.346 1.556-7.431 3.551-14.888 5.93-22.165.756-2.313.344-4.848-1.106-6.801l-19.564-26.356 25.073-43.428 32.651 3.789c2.42.276 4.822-.63 6.447-2.441 5.089-5.67 10.544-11.126 16.214-16.214 1.812-1.625 2.721-4.029 2.441-6.447l-3.789-32.651 43.428-25.073 26.355 19.563c1.953 1.45 4.488 1.864 6.801 1.106 7.275-2.379 14.733-4.374 22.165-5.931 2.385-.5 4.378-2.125 5.346-4.361l13.044-30.127h50.148l13.043 30.128c.968 2.236 2.961 3.862 5.346 4.361 7.432 1.557 14.89 3.552 22.165 5.931 2.313.758 4.848.344 6.801-1.106l26.356-19.563 43.428 25.073-3.789 32.651c-.28 2.418.63 4.821 2.441 6.447 5.671 5.088 11.126 10.543 16.214 16.214 1.625 1.811 4.026 2.72 6.447 2.441l32.651-3.789 25.073 43.428-19.563 26.356c-1.45 1.953-1.863 4.489-1.106 6.801 2.379 7.275 4.374 14.733 5.931 22.165.5 2.385 2.125 4.378 4.361 5.346l30.127 13.042z"/><path d="m256 60c-46.574 0-91.72 16.63-127.122 46.826-3.151 2.688-3.527 7.422-.839 10.573s7.422 3.527 10.573.839c32.69-27.882 74.379-43.238 117.388-43.238 99.804 0 181 81.196 181 181s-81.196 181-181 181-181-81.196-181-181c0-43.009 15.356-84.698 43.238-117.388 2.688-3.151 2.313-7.885-.839-10.573s-7.886-2.313-10.573.839c-30.196 35.402-46.826 80.548-46.826 127.122 0 108.075 87.925 196 196 196s196-87.925 196-196-87.925-196-196-196z"/><path d="m256 422c91.533 0 166-74.467 166-166s-74.467-166-166-166-166 74.467-166 166 74.467 166 166 166zm-7.5-249.5c0-4.136 3.364-7.5 7.5-7.5s7.5 3.364 7.5 7.5-3.364 7.5-7.5 7.5-7.5-3.364-7.5-7.5zm7.5-67.5c83.262 0 151 67.738 151 151 0 64.809-41.043 120.206-98.5 141.581v-48.474l27.803-27.803c1.407-1.406 2.197-3.314 2.197-5.303v-38.79c8.729-3.096 15-11.432 15-21.21 0-12.407-10.093-22.5-22.5-22.5s-22.5 10.093-22.5 22.5c0 9.778 6.271 18.114 15 21.21v35.684l-27.803 27.803c-1.407 1.406-2.197 3.314-2.197 5.303v56.285c-9.664 2.479-19.698 4.021-30 4.528v-213.104c8.729-3.096 15-11.432 15-21.21 0-12.407-10.093-22.5-22.5-22.5s-22.5 10.093-22.5 22.5c0 9.778 6.271 18.114 15 21.21v213.103c-10.302-.506-20.336-2.049-30-4.528v-56.285c0-1.989-.79-3.897-2.197-5.303l-27.803-27.803v-35.684c8.729-3.096 15-11.432 15-21.21 0-12.407-10.093-22.5-22.5-22.5s-22.5 10.093-22.5 22.5c0 9.778 6.271 18.114 15 21.21v38.79c0 1.989.79 3.897 2.197 5.303l27.803 27.803v48.474c-57.457-21.374-98.5-76.771-98.5-141.58 0-83.262 67.738-151 151-151zm67.5 151c0-4.136 3.364-7.5 7.5-7.5s7.5 3.364 7.5 7.5-3.364 7.5-7.5 7.5-7.5-3.364-7.5-7.5zm-150 0c0-4.136 3.364-7.5 7.5-7.5s7.5 3.364 7.5 7.5-3.364 7.5-7.5 7.5-7.5-3.364-7.5-7.5z"/></g></svg>