<svg id="Layer_1_1_" enable-background="new 0 0 64 64" height="512" viewBox="0 0 64 64" width="512" xmlns="http://www.w3.org/2000/svg"><path d="m2.2002 50.6001 2.65332 3.5376-2.77246 6.46826c-.16797.39258-.06934.84814.24707 1.13477.18847.17089.42968.25927.67187.25927.16504 0 .33105-.04053.48145-.12402l20-11c.32031-.1753.51855-.51123.51855-.87598s-.19824-.70068-.51855-.87598l-20-11c-.37109-.20557-.83691-.15234-1.15332.13525-.31641.28662-.41504.74219-.24707 1.13477l2.77246 6.46826-2.65332 3.5376c-.26661.35547-.26661.84473 0 1.2002zm4.51983 4.25812 9.38776-2.20886-11.04431 6.07427zm9.38776-7.50757-9.38776-2.20886-1.65656-3.86542zm-9.7005-.22718 12.22528 2.87653-12.22528 2.87653-2.15729-2.87653z"/><path d="m46 2c-8.48474 0-15.42889 6.6441-15.94934 15h-2.6366l-2.70703-2.70703-1.41406 1.41406 1.29297 1.29297h-4.08594c-5.79004 0-10.5 4.71045-10.5 10.5s4.70996 10.5 10.5 10.5h11.08594l2.70703 2.70703 1.41406-1.41406-1.29297-1.29297h19.08594c3.03223 0 5.5 2.46729 5.5 5.5s-2.46777 5.5-5.5 5.5h-9.08594l-2.70703-2.70703-1.41406 1.41406 1.29297 1.29297h-15.58594v2h15.58594l-1.29297 1.29297 1.41406 1.41406 2.70703-2.70703h9.08594c4.13574 0 7.5-3.36426 7.5-7.5s-3.36426-7.5-7.5-7.5h-19.08594l1.29297-1.29297-1.41406-1.41406-2.70703 2.70703h-11.08594c-4.68652 0-8.5-3.81299-8.5-8.5s3.81348-8.5 8.5-8.5h4.08594l-1.29297 1.29297 1.41406 1.41406 2.70703-2.70703h2.6366c.52045 8.3559 7.4646 15 15.94934 15 8.82227 0 16-7.17773 16-16s-7.17773-16-16-16zm0 30c-7.3822 0-13.43304-5.74707-13.94934-13h3c.50751 5.5979 5.22143 10 10.94934 10 6.06543 0 11-4.93457 11-11s-4.93457-11-11-11c-5.72791 0-10.44183 4.4021-10.94934 10h-3c.5163-7.25293 6.56714-13 13.94934-13 7.71973 0 14 6.28027 14 14s-6.28027 14-14 14zm-2.29297-10.29297 3-3c.39062-.39062.39062-1.02344 0-1.41406l-3-3-1.41406 1.41406 1.29297 1.29297h-6.52692c.49945-4.49298 4.31647-8 8.94098-8 4.96289 0 9 4.0376 9 9s-4.03711 9-9 9c-4.62451 0-8.44153-3.50702-8.94098-8h6.52692l-1.29297 1.29297z"/><path d="m52 18c0-3.30859-2.69141-6-6-6v2c2.20605 0 4 1.79443 4 4s-1.79395 4-4 4v2c3.30859 0 6-2.69141 6-6z"/></svg>